<?xml version="1.0" standalone="no"?>
<!DOCTYPE svg PUBLIC "-//W3C//DTD SVG 1.1//EN" "http://www.w3.org/Graphics/SVG/1.1/DTD/svg11.dtd" >
<svg xmlns="http://www.w3.org/2000/svg" xmlns:xlink="http://www.w3.org/1999/xlink" version="1.1">
<metadata></metadata>
<defs>
<font id="sigvar_serialxlight" horiz-adv-x="1140" >
<font-face units-per-em="2048" ascent="1638" descent="-410" />
<missing-glyph horiz-adv-x="593" />
<glyph horiz-adv-x="0" />
<glyph horiz-adv-x="0" />
<glyph horiz-adv-x="682" />
<glyph unicode="&#xd;" horiz-adv-x="593" />
<glyph unicode=" "  horiz-adv-x="593" />
<glyph unicode="&#x09;" horiz-adv-x="593" />
<glyph unicode="&#xa0;" horiz-adv-x="593" />
<glyph unicode="!" horiz-adv-x="509" d="M127 102l127 127l129 -127l-129 -131zM164 1477h190l-63 -1121h-68z" />
<glyph unicode="&#x22;" horiz-adv-x="686" d="M37 1036q13 19 29 46t20 32q43 67 55.5 91t12.5 44q0 81 -93 127l129 129l134 -129q-15 -57 -34.5 -97t-53.5 -85q-34 -42 -84 -86q-61 -45 -115 -72zM362 1036q13 19 30 46t20 32q42 65 54.5 90t12.5 45q0 80 -92 127l129 129l131 -129q-15 -59 -33.5 -98.5t-52.5 -83.5 q-37 -46 -86 -86q-41 -34 -113 -72z" />
<glyph unicode="#" horiz-adv-x="1292" d="M113 481l16 80h236l75 352h-237l18 80h236l92 441h80l-92 -441h231l92 441h80l-92 -441h235l-16 -80h-238l-73 -352h235l-16 -80h-236l-92 -440h-80l92 440h-231l-92 -440h-80l92 440h-235zM444 561h232l76 352h-232z" />
<glyph unicode="$" horiz-adv-x="1019" d="M59 63l19 121q101 -79 178 -104q51 -15 90 -21q82 -14 129 -14q134 0 225 87t91 214q0 58 -23.5 112.5t-62.5 86.5q-73 58 -246 155l-150 84q-99 56 -158 146.5t-59 189.5q0 186 184 305q93 58 160 58q3 0 11 -1t16 -1v139h88v-135q29 2 61 2q64 0 148 -17l59 -12 q17 -4 62 -8l14 -139q-167 119 -332 119q-134 0 -222.5 -78.5t-88.5 -196.5q0 -88 65 -157t226 -158l164 -90q114 -62 176.5 -151.5t62.5 -192.5q0 -86 -44 -172.5t-116 -145.5q-82 -68 -235 -106v-142h-88v133q-20 -2 -49 -2q-133 0 -355 92z" />
<glyph unicode="%" horiz-adv-x="1484" d="M82 1077q0 220 67 322t213 102t214.5 -102t68.5 -322t-68.5 -322t-214.5 -102t-213 102t-67 322zM188 0l1012 1477h107l-1012 -1477h-107zM244 1077q0 -155 4 -201t18 -85q12 -31 38.5 -50.5t57.5 -19.5q32 0 59.5 19.5t39.5 50.5q15 37 18.5 81.5t3.5 204.5 q0 161 -3.5 205.5t-18.5 81.5q-12 31 -38.5 48.5t-60.5 17.5q-33 0 -59.5 -18t-36.5 -48q-15 -39 -18.5 -83t-3.5 -204zM840 406q0 204 72.5 310.5t211.5 106.5q59 0 116.5 -23.5t86.5 -60.5q74 -99 74 -348q0 -418 -285 -418q-141 0 -208.5 105.5t-67.5 327.5zM1001 385 q0 -147 3.5 -191.5t17.5 -82.5q12 -30 38 -48t56 -18q32 0 60.5 19.5t40.5 50.5q15 39 18.5 87t3.5 201q0 158 -3 201t-17 80q-25 66 -95 66q-31 0 -58.5 -18t-39.5 -48q-16 -41 -20.5 -94t-4.5 -205z" />
<glyph unicode="&#x26;" horiz-adv-x="1357" d="M80 346q0 111 61.5 205.5t223.5 230.5l-17 27q-4 3 -6.5 6t-3.5 5t-2 3l-60 82q-94 131 -94 260q0 137 104.5 232.5t256.5 95.5q125 0 199.5 -69.5t74.5 -186.5q0 -71 -31.5 -133.5t-107.5 -138.5q-72 -72 -152 -138q138 -180 205 -262q103 -123 219 -256 q115 160 115 297q0 76 -18 121q-2 7 -15 23h258q-24 -27 -63 -97q-8 -19 -21 -35q-30 -59 -67 -120l-68 -113q-27 -47 -82 -119q62 -73 119 -125q110 -94 149 -112l46 -21l14 -8h-299l-127 147q-56 -53 -92 -73q-137 -94 -312 -94q-178 0 -292.5 103t-114.5 263zM236 412 q0 -145 92.5 -236.5t238.5 -91.5q108 0 197 47q35 17 82 64q-69 76 -225 262q-17 21 -50 60.5t-51.5 62t-50 63t-66.5 86.5q-92 -84 -129.5 -156.5t-37.5 -160.5zM326 1208q0 -69 27.5 -129t121.5 -182l14 -18q106 97 154.5 181.5t48.5 174.5q0 85 -46 137.5t-122 52.5 q-83 0 -140.5 -62.5t-57.5 -154.5z" />
<glyph unicode="'" horiz-adv-x="360" d="M37 1036q13 19 29 46t20 32q43 67 55.5 91t12.5 44q0 81 -93 127l129 129l134 -129q-15 -57 -34.5 -97t-53.5 -85q-34 -42 -84 -86q-61 -45 -115 -72z" />
<glyph unicode="(" horiz-adv-x="563" d="M113 737q0 292 124.5 528t331.5 337q-63 -63 -120 -144q-90 -128 -138.5 -315.5t-48.5 -405.5q0 -297 90 -538q29 -79 77.5 -150.5t127.5 -163.5l12 -14q-209 104 -332.5 338.5t-123.5 527.5z" />
<glyph unicode=")" horiz-adv-x="563" d="M-6 -129q54 56 119 145q91 130 139.5 317t48.5 404q0 304 -88 537q-20 54 -56 111.5t-64.5 94.5t-88.5 109l-10 13q209 -103 332 -337t123 -528q0 -193 -55.5 -365.5t-158.5 -302.5t-241 -198z" />
<glyph unicode="*" horiz-adv-x="739" d="M53 1049l258 104l-258 98l68 115l215 -162l-41 279h141l-35 -285l215 172l70 -117l-258 -104l250 -109l-76 -108l-203 168l37 -279h-137l51 281l-225 -172z" />
<glyph unicode="+" d="M55 668v135h449v452h131v-452h450v-135h-450v-447h-131v447h-449z" />
<glyph unicode="," horiz-adv-x="360" d="M37 -240q41 67 49 78q42 65 55 90.5t13 44.5q0 86 -93 129l129 127l134 -127q-15 -58 -34.5 -98.5t-53.5 -83.5q-41 -51 -84 -86q-48 -37 -115 -74z" />
<glyph unicode="-" horiz-adv-x="811" d="M76 504l78 131h581l-78 -131h-581z" />
<glyph unicode="." horiz-adv-x="331" d="M37 102l129 127l129 -127l-129 -131z" />
<glyph unicode="/" horiz-adv-x="1112" d="M70 -145l868 1765h104l-868 -1765h-104z" />
<glyph unicode="0" d="M102 694v31q0 383 125 576.5t367 193.5q227 0 336.5 -176t109.5 -539q0 -162 -20 -305q-35 -242 -152.5 -374t-300.5 -132q-135 0 -239.5 71.5t-155.5 197.5q-70 173 -70 456zM266 715q0 -346 74.5 -512t230.5 -166q92 0 161 66.5t97 181.5q45 182 45 469q0 355 -68 513 t-220 158q-96 0 -164.5 -62.5t-99.5 -180.5q-25 -90 -40.5 -219t-15.5 -248z" />
<glyph unicode="1" d="M406 1444q72 2 145 20q58 17 108 41v-1249v-31v-16l-2 -55v-11q0 -71 21 -143h-189q15 74 15 147v46q0 8 -1 18.5t-1 13.5v29v664l2 124v68q0 142 -12 213q-6 39 -22 61.5t-60 55.5z" />
<glyph unicode="2" d="M78 0l31 35q5 7 55 65q127 149 192 232.5t199 267.5q138 193 192 305t54 211q0 126 -68.5 197t-191.5 71q-192 0 -318 -167l19 165q71 50 172 81.5t190 31.5q166 0 264.5 -88.5t98.5 -237.5q0 -153 -121 -327q-117 -172 -430 -563q-82 -100 -121 -146h450q97 0 160 24 t135 89l-61 -246h-901z" />
<glyph unicode="3" d="M117 219q54 -49 86 -65q117 -68 246 -68q134 0 223.5 95t89.5 237q0 188 -141 289q-55 39 -111.5 63.5t-142.5 38.5l-13 2q338 109 338 358q0 100 -61.5 161t-161.5 61q-99 0 -231 -80l28 110q140 76 285 76q137 0 216 -73t79 -199q0 -67 -28.5 -136t-80.5 -124 q-35 -37 -84 -72q-50 -35 -129 -70q400 -104 400 -409q0 -194 -126 -319.5t-319 -125.5q-198 0 -325 105z" />
<glyph unicode="4" d="M35 520l659 957h115v-846h72q95 0 196 16q-12 -20 -33 -47q-42 -52 -73 -65t-105 -13h-65v-225q0 -15 2 -29v-18v-70q0 -68 16 -180h-184q11 53 13.5 87.5t2.5 129.5v12v39l2 29v223h-618zM207 631h444v637z" />
<glyph unicode="5" d="M119 219q135 -135 327 -135q140 0 228 93t88 241q0 309 -500 448l105 611h407q148 0 217 34l-78 -182h-487l-66 -364q162 -50 258 -101q151 -82 230.5 -198.5t79.5 -255.5q0 -192 -127 -316.5t-322 -124.5q-194 0 -323 109z" />
<glyph unicode="6" d="M154 553q0 238 55 433.5t156 313.5q82 95 204.5 154t239.5 59h37q-179 -63 -268 -143q-67 -58 -121 -154t-82 -204q-35 -129 -51 -271q156 150 315 150q158 0 254 -116t96 -304q0 -214 -119.5 -354t-302.5 -140q-195 0 -304 152t-109 424zM319 473q0 -194 70 -306 t193 -112q114 0 179.5 101.5t65.5 273.5q0 166 -69 264.5t-187 98.5q-100 0 -168.5 -72.5t-80.5 -190.5q-3 -24 -3 -57z" />
<glyph unicode="7" d="M82 -37q105 139 156 223q107 180 258 500l313 670h-360q-104 0 -167.5 -13.5t-146.5 -52.5l27 234l594 -41q58 -4 94 -4q114 0 209 18l-539 -1081l-41 -82l-45 -82q-58 -107 -141 -178q-61 -50 -103 -72q-47 -26 -108 -39z" />
<glyph unicode="8" d="M74 348q0 130 90 240t285 219q-144 69 -223 167.5t-79 207.5q0 140 119 229.5t305 89.5q182 0 294 -80.5t112 -212.5q0 -118 -113 -243q-61 -69 -143 -121q34 -16 49 -27q289 -162 289 -403q0 -192 -143.5 -321.5t-358.5 -129.5q-210 0 -346.5 109.5t-136.5 275.5z M233 365q0 -145 88.5 -235.5t229.5 -90.5q142 0 236 94t94 234q0 101 -49.5 173t-172.5 150q-99 63 -155 82q-146 -95 -208.5 -189t-62.5 -218zM311 1210q0 -181 346 -336q75 72 120.5 162t45.5 166q0 102 -69 163.5t-185 61.5q-113 0 -185.5 -61t-72.5 -156z" />
<glyph unicode="9" d="M145 -31q187 100 269 172q180 157 294.5 411.5t114.5 496.5q0 179 -61 272.5t-178 93.5q-115 0 -187.5 -91.5t-72.5 -236.5q0 -157 83 -247t228 -90q45 0 113 18q-52 -39 -102.5 -54.5t-123.5 -15.5q-164 0 -265 103t-101 270q0 183 123.5 304.5t310.5 121.5 q194 0 299.5 -122.5t105.5 -346.5q0 -190 -72.5 -380t-189 -335.5t-273 -240.5t-315.5 -103z" />
<glyph unicode=":" horiz-adv-x="393" d="M70 102l125 127l129 -127l-129 -131zM70 932l127 131l129 -131l-129 -131z" />
<glyph unicode=";" horiz-adv-x="419" d="M70 -240q14 28 47 78q40 63 53.5 89.5t13.5 45.5q0 87 -92 129l127 127l133 -127q-26 -103 -86 -182q-37 -46 -86 -86q-45 -38 -110 -74zM90 932l131 131l133 -131l-133 -131z" />
<glyph unicode="&#x3c;" horiz-adv-x="589" d="M98 516l394 541l-244 -541l244 -539z" />
<glyph unicode="=" d="M53 537v131h1037v-131h-1037zM53 809v131h1037v-131h-1037z" />
<glyph unicode="&#x3e;" horiz-adv-x="589" d="M98 -23l242 539l-242 541l394 -541z" />
<glyph unicode="?" horiz-adv-x="757" d="M37 1300v111q143 92 285 92q154 0 253 -90t99 -231q0 -148 -121 -275l-115 -121q-114 -120 -129 -235q-2 -13 -10 -201h-76v39q0 45 -2 55l-6 125q-2 4 -2 17q0 57 25 102q37 77 100 154l35 43q84 104 107.5 163.5t23.5 133.5q0 97 -60 154t-163 57q-129 0 -244 -93z M135 102l129 127l127 -127l-127 -131z" />
<glyph unicode="@" horiz-adv-x="1699" d="M123 645q-17 151 20.5 295.5t124.5 263.5q94 128 223.5 205t270.5 92q163 18 304 -32.5t234.5 -151.5t136.5 -251.5t17 -324.5q-29 -196 -122.5 -314t-207.5 -134q-88 -12 -149.5 44.5t-52.5 135.5q-11 -39 -43 -76q-55 -63 -125.5 -77.5t-145.5 20.5q-74 35 -113 125.5 t-32 234.5q6 73 6 74q20 130 73 229.5t126 153.5q102 72 191.5 54t137.5 -113q6 -9 9 -21l20 131l96 -2l-80 -450l-2 -13l-26 -174q-11 -70 6 -129q10 -40 46.5 -58.5t74.5 -4.5q32 12 58 33.5t67 70.5q75 94 98 279q21 159 -17.5 293t-121.5 220t-205.5 125.5t-263.5 18.5 q-106 -16 -201 -71t-164 -138.5t-114.5 -191t-52 -228.5t23.5 -251q39 -155 134.5 -270.5t218 -169.5t267 -46.5t275.5 84.5q41 22 102 72q65 53 117 115l49 -46q-24 -30 -53 -59q-241 -244 -535 -244q-274 0 -471 186.5t-229 485.5zM569 594q3 -80 25 -129q29 -62 95.5 -74 t119.5 37q32 31 53 66.5t43 103.5q16 47 41 168l4 20l13 88q10 79 0.5 123t-43.5 84q-29 34 -69 44t-84.5 -9t-80.5 -65q-43 -54 -80 -168q-21 -62 -33 -170q-7 -77 -4 -119z" />
<glyph unicode="A" horiz-adv-x="1284" d="M-20 0q52 77 98 182q27 53 51 117l92 240l76 192l164 428l47 121q18 48 18 90q0 51 -22 107h170l246 -594q13 -32 33.5 -85.5t29.5 -76.5q118 -294 162 -395q55 -133 123 -248q19 -34 51 -78h-219q-8 56 -17 88t-34 92l-37 88l-4 13l-7 16l-161 381h-484l-141 -379 l-8 -23q-55 -150 -55 -217q0 -5 4 -59h-176zM377 737h440l-235 555z" />
<glyph unicode="B" horiz-adv-x="1146" d="M139 0q17 65 19 90q2 11 6 90q0 19 1 49t1 35v4l-2 29v879v14l2 16v84q0 66 -21 183q77 -3 119 -3q114 0 170 5l141 10q20 2 58 2q163 0 254.5 -75t91.5 -210q0 -128 -82.5 -226.5t-234.5 -152.5q200 -26 301.5 -122t101.5 -259q0 -155 -95 -274t-243 -148 q-70 -15 -156 -18q-55 -2 -204 -2h-228zM319 838q15 -1 38.5 -4t35.5 -3q231 0 328 115q38 42 59 98t21 111q0 85 -41 147t-111 84q-81 23 -176 23h-51l-82 -6h-6h-15v-565zM322 270q0 -82 1 -102t7 -35q15 -36 50 -48.5t118 -12.5q180 0 280.5 92t100.5 256q0 162 -95 254 q-56 53 -127.5 72.5t-207.5 19.5q-70 0 -127 -4v-492z" />
<glyph unicode="C" horiz-adv-x="1263" d="M104 721q0 162 50.5 305t138 245.5t210 162t261.5 59.5q32 0 221 -23l64 -8q13 -2 27.5 -4t22.5 -3t11 -1q15 0 27 2l16 -172q-83 63 -188 99t-205 36q-218 0 -344.5 -183.5t-126.5 -498.5q0 -312 133 -495t360 -183q114 0 212.5 55t203.5 175l-47 -162 q-183 -154 -401 -154q-138 0 -258 57t-205 155.5t-134 237.5t-49 298z" />
<glyph unicode="D" horiz-adv-x="1409" d="M139 0q16 59 21.5 99.5t5.5 109.5q0 37 -2 57v10v19v883v8v22v90q0 39 -3 70t-6 45.5t-14 63.5h162q45 0 139 6q122 10 217 10q298 0 472 -191t174 -518q0 -264 -104 -445.5t-308 -272.5q-155 -70 -385 -70l-23 2l-139 2h-207zM319 164q0 -32 17 -58q35 -43 135 -43 q231 0 365 76q135 78 209.5 241t74.5 382q0 314 -142.5 484.5t-404.5 170.5q-104 0 -254 -22v-1131v-100z" />
<glyph unicode="E" horiz-adv-x="1052" d="M141 0q19 80 21 164q4 58 4 88v2v1040q0 68 -2 78q0 7 -8 64q0 11 -9 41h760l23 -127q-119 51 -303 51h-308v-588h236q147 0 252 43v-162q-57 25 -111.5 34t-142.5 9h-234v-655h381h131q87 0 222 55l-95 -137h-817z" />
<glyph unicode="F" horiz-adv-x="929" d="M139 0q25 92 25 199v1093q0 100 -21 185h762l23 -121q-181 45 -305 45h-301v-604h235q76 0 128.5 9.5t117.5 33.5v-158q-21 6 -43 10q-27 9 -98 19q-93 14 -107 14h-236v-514q0 -31 3 -102q6 -74 14 -109h-197z" />
<glyph unicode="G" horiz-adv-x="1456" d="M104 713q0 231 88.5 409t249.5 275.5t371 97.5q47 0 121 -8l125 -17l28 -2l60 -6q41 -8 59 -8q5 0 45 4l21 -186q-48 39 -88 61q-74 39 -164.5 61.5t-173.5 22.5q-147 0 -250 -41q-141 -56 -226 -226.5t-85 -401.5q0 -148 36.5 -280.5t104.5 -229.5q129 -189 397 -189 q97 0 181 17q63 12 155 49v442q0 110 -16 178h188q-1 -6 -5 -19t-5 -22q-4 -36 -4 -51q0 -1 -1 -19.5t-1 -48.5v-391l2 -67l2 -35q5 -41 10 -62q-35 3 -41 3q-19 1 -31.5 2t-17 1.5t-6.5 0.5q-15 0 -76 -11q-216 -47 -362 -47q-275 0 -467 174q-117 106 -170.5 242.5 t-53.5 327.5z" />
<glyph unicode="H" horiz-adv-x="1368" d="M135 0q10 35 13.5 62t6 79.5t7.5 104.5l2 20v31v881v30v19l-2 71q-1 65 -5 94.5t-18 84.5h199q-19 -100 -19 -228v-41v-28v-365h730v365v28v41q0 118 -21 228h201q-16 -58 -20.5 -87.5t-4.5 -91.5v-67v-23v-30v-881v-31v-22l2 -68q2 -88 25 -176h-203q21 105 21 180v88 l4 29v440h-736v-440v-29q2 -14 2 -47v-41q0 -86 21 -180h-205z" />
<glyph unicode="I" horiz-adv-x="481" d="M139 0q17 65 19 90q2 16 2.5 58.5t3.5 91.5l2 28v13v4v889v10v18q0 20 -1 49t-1 39q-2 93 -25 187h205q-23 -81 -25 -187l-2 -88v-28v-877v-4v-25l2 -88q1 -67 5.5 -97t19.5 -83h-205z" />
<glyph unicode="J" horiz-adv-x="483" d="M-20 -180q119 56 157 170q25 80 27 248q2 53 2 102v834v28l2 88v66q0 42 -16 121h192q-11 -53 -14 -95q-8 -68 -8 -178v-30v-803v-27v-6l2 -16v-86v-21q0 -174 -48 -254q-38 -64 -109 -103.5t-147 -39.5q-22 0 -40 2z" />
<glyph unicode="K" horiz-adv-x="1083" d="M139 1477h205q-25 -113 -25 -177v-90v-28v-391l17 20l31 33l24 28l8 9l50 59l204 242l21 24l4 4q99 121 125 179q14 30 22 88h203q-15 -14 -27 -25.5t-24.5 -24.5t-19.5 -20.5t-21.5 -23t-20 -22.5t-25 -29t-28.5 -32l-53 -61l-25 -29l-26 -28l-309 -361l405 -565 q70 -101 156 -176q48 -42 108 -80h-180q-54 0 -86 17t-64 63l-471 659v-440v-29v-28q0 -83 5 -131.5t22 -110.5h-203q18 70 21 152l2 71v31v928q0 94 -2 121q-2 81 -23 174z" />
<glyph unicode="L" horiz-adv-x="952" d="M139 0q23 101 23 203v1069q0 55 -2 94q-2 61 -15 111h189q-19 -80 -19 -187v-1208h295q169 0 334 59l-78 -141h-727z" />
<glyph unicode="M" horiz-adv-x="1671" d="M119 0q16 72 16 90v2q0 2 0.5 12.5l1.5 31.5t2 44l2 88l2 29l33 840v61q0 201 -37 279h205l483 -1229l463 1229h195l-6 -27q-17 -78 -17 -143q-1 -31 -2 -59t-1.5 -41t-0.5 -15q0 -10 2 -27t2 -24l56 -846l2 -12q0 -51 6 -107q6 -89 30 -176h-194q14 77 14 127 q0 97 -6 152l-2 18l-70 960l-475 -1257h-61l-504 1272l-39 -977v-29q0 -5 -1 -34.5t-1 -45.5q0 -67 5.5 -100.5t25.5 -85.5h-129z" />
<glyph unicode="N" horiz-adv-x="1409" d="M127 1477h149l889 -1184v887v28l-2 47v43q0 71 -18 179h121q-21 -111 -21 -183v-2v-84v-28v-1180h-65l-938 1255v-958v-29q2 -6 2 -22v-66q0 -94 22 -180h-123q18 76 21 180l2 88v29v903q0 102 -10 172q-9 67 -29 105z" />
<glyph unicode="O" horiz-adv-x="1544" d="M104 725v35q0 338 248 559q99 87 201 126.5t229 39.5q183 0 334 -98.5t237.5 -270.5t86.5 -381q0 -271 -146 -479q-187 -272 -528 -272q-193 0 -344 93t-234.5 262t-83.5 386zM291 735q0 -196 60.5 -350t169.5 -240t249 -86q141 0 250.5 86t170 241t60.5 353 q0 318 -128 498t-353 180q-226 0 -352.5 -180.5t-126.5 -501.5z" />
<glyph unicode="P" horiz-adv-x="1026" d="M143 0q15 55 17 90q1 9 1.5 22t1 32.5t1.5 35.5q0 23 1 49t1 29v10v29v881v28v47v39q0 76 -23 185h150q16 0 66.5 1t86.5 1h99q226 0 336 -91.5t110 -279.5q0 -198 -133.5 -327.5t-337.5 -129.5q-84 0 -160 31q9 0 20 -1t13 -1q193 0 309.5 114.5t116.5 303.5 q0 86 -26 151q-29 66 -82 101q-47 34 -111.5 46.5t-187.5 12.5q-54 0 -93 -4v-1108v-12v-17q0 -57 2.5 -99.5t2.5 -47.5q3 -59 14 -121h-195z" />
<glyph unicode="Q" horiz-adv-x="1546" d="M104 727q0 215 87.5 388.5t242.5 271.5t348 98q183 0 334 -98.5t237.5 -270.5t86.5 -381q0 -266 -146 -479q-54 -77 -117 -126.5t-188 -113.5q47 -97 120 -143.5t179 -46.5q99 0 176 74q-28 -60 -53 -80q-36 -33 -96.5 -54.5t-116.5 -21.5q-63 0 -136 32t-124 83 q-47 44 -98 133q-43 -8 -90 -8q-185 0 -332.5 94.5t-230.5 264.5t-83 384zM291 739q0 -166 35 -278q5 -23 34 -103q27 41 68 82q46 50 86 68t98 18q52 0 86 -14.5t74 -52.5q63 -60 90 -121q2 -4 64 -178q2 -2 2 -4q8 -24 20 -54q81 42 129 94.5t92 147.5q82 174 82 395 q0 318 -128 498t-353 180t-352 -180t-127 -498zM401 276q35 -52 59.5 -78.5t63.5 -54.5q61 -43 116.5 -60t158.5 -26l-11 33l-12 27q-15 31 -25.5 61.5t-18.5 59.5t-11 38q-31 97 -60.5 132.5t-78.5 35.5q-56 0 -106 -46.5t-75 -121.5z" />
<glyph unicode="R" horiz-adv-x="1169" d="M139 1477h168q59 0 133 8q117 10 160 10q170 0 267.5 -88t97.5 -242q0 -160 -106 -272.5t-296 -155.5l357 -436q53 -66 100 -117q69 -72 149 -127q42 -25 109 -57h-152q-67 0 -96.5 4t-52.5 16t-63 49.5t-72 75.5l-340 422l-53 70q-30 39 -58 58t-69 26v-426v-29v-90 q0 -72 2 -88q2 -24 16 -88h-199q14 53 18.5 83t4.5 93v70v20v31v879v28l-2 88q-2 92 -23 185zM319 786q52 -6 82 -6q175 0 282.5 95.5t107.5 252.5q0 132 -74 209.5t-199 77.5q-60 0 -199 -14v-615z" />
<glyph unicode="S" horiz-adv-x="1036" d="M70 63l16 121q13 -10 29 -23t26 -20q149 -96 324 -96q146 0 239 84t93 217q0 58 -23.5 112.5t-62.5 86.5q-29 24 -103.5 71.5t-140.5 83.5l-150 84q-97 54 -156 145.5t-59 190.5q0 163 128.5 269t326.5 106q93 0 211 -25l57 -12q16 -4 64 -8l14 -139q-170 119 -334 119 q-133 0 -220 -78t-87 -197q0 -88 63.5 -157t223.5 -158l164 -90q115 -63 177 -152t62 -192q0 -117 -69 -218t-186 -160t-253 -59q-150 0 -374 94z" />
<glyph unicode="T" horiz-adv-x="1177" d="M8 1356l23 121h1116l22 -121q-158 45 -292 45h-215v-1192q0 -92 20 -209h-186q18 123 18 209v1192h-213q-139 0 -293 -45z" />
<glyph unicode="U" horiz-adv-x="1376" d="M141 1477h191q-11 -64 -13 -95q0 -7 -1 -37t-1 -53v-35v-4v-49v-30v-781q0 -313 334 -313q97 0 182 32.5t142 90.5q52 55 68 108t16 172v691v16v12v84q0 94 -23 191h189q-8 -90 -8 -95q-5 -41 -5 -178v-30v-877v-8v-21v-88q0 -80 20 -166q2 -9 3 -14h-176v188 q-97 -108 -223.5 -164.5t-272.5 -56.5q-218 0 -330 121q-44 47 -56.5 96t-12.5 170v822v28v49v39q0 93 -23 185z" />
<glyph unicode="V" horiz-adv-x="1204" d="M-6 1477h221v-31q0 -47 4 -70q7 -32 60 -186l6 -19l372 -999l328 999l8 29q9 31 20 67t15 50.5t9 32t6 27.5t1 22q0 23 -12 78h178q-33 -58 -53 -101q-3 -7 -10 -23.5t-8 -19.5q-6 -11 -19 -45q-12 -24 -30 -88l-9 -29l-127 -364l-88 -250l-121 -342q-28 -86 -71 -215 h-121q-11 35 -27 82t-18 53q-14 40 -62 168l-100 275l-221 593l-12 29q-6 20 -18 49t-15 39q-40 97 -86 189z" />
<glyph unicode="W" horiz-adv-x="1837" d="M53 1477h203v-29v-27q5 -37 8 -45q0 -13 19 -88l18 -67l4 -21l6 -29q27 -124 83 -340.5t67 -265.5l63 -291l25 -102l254 891l28 100q22 79 28.5 109t6.5 63q0 6 -4 56q-3 13 -6.5 30.5t-5.5 24.5t-12 31h206q-8 -25 -8 -82v-52q3 -12 6 -36q8 -46 25 -99l41 -135 l266 -897q15 60 21 88q54 235 112 457l119 453q31 127 31 196q0 41 -27 107h154q-23 -71 -53 -187q-6 -24 -12 -51.5t-9 -36.5l-8 -28q-24 -83 -66.5 -262.5t-52.5 -217.5l-106 -405q-10 -38 -32.5 -127.5t-41.5 -161.5h-141l-80 268q-7 26 -34 114t-46 153t-37 128 t-33.5 118.5t-21.5 76.5l-97 326l-180 -641l-153 -543h-154l-25 111q-76 332 -104 446l-80 334l-70 278l-8 31q-3 10 -10.5 42t-11.5 46q-34 116 -64 189z" />
<glyph unicode="X" horiz-adv-x="1271" d="M-6 1477h260q4 -14 8 -30t6 -22q15 -37 125 -194l250 -348l197 293q8 16 16 28q4 6 14.5 23t18.5 30q36 59 49.5 95.5t13.5 72.5q0 29 -2 52h205q-76 -88 -82 -95q-63 -84 -74 -106l-47 -72l-20 -30l-246 -359l387 -557q77 -110 135 -174q31 -33 92 -84h-260 q-15 49 -32 84q-6 16 -103 152l-311 438l-262 -377q-5 -10 -17 -31q-2 -2 -14 -22q-50 -78 -63.5 -102.5t-22.5 -53.5q-8 -16 -8 -45q0 -7 4 -43h-186q72 83 77 90q13 18 56 81t67 97l21 29l299 448l-324 461q-103 148 -147 203q-28 28 -80 68z" />
<glyph unicode="Y" horiz-adv-x="1062" d="M-29 1477h203l420 -748l268 569q33 70 33 152v27h166q-7 -12 -16 -25t-13 -20q-6 -13 -33 -62q-10 -17 -22 -37.5t-19.5 -33.5t-11.5 -23l-260 -537l-20 -47q-20 -50 -21 -53q-8 -24 -8 -119v-334q0 -28 6 -59q0 -3 4 -61q4 -42 10 -66h-202q26 118 26 172v455l-395 690 q-7 13 -55 80l-37 47q-18 24 -23 33z" />
<glyph unicode="Z" horiz-adv-x="1226" d="M37 0l889 1401h-527q-109 0 -177.5 -9t-168.5 -36l31 121h1069l-883 -1395h465q222 0 461 59l-31 -141h-1128z" />
<glyph unicode="[" horiz-adv-x="460" d="M141 -137v1751h250v-107h-106v-1538h106v-106h-250z" />
<glyph unicode="\" horiz-adv-x="622" d="M113 1475h92l258 -1475h-92z" />
<glyph unicode="]" horiz-adv-x="454" d="M70 -31h104v1538h-104v107h241v-1751h-241v106z" />
<glyph unicode="^" horiz-adv-x="579" d="M70 1081l186 287h70l186 -283l-217 140z" />
<glyph unicode="_" horiz-adv-x="1040" d="M113 0h737v-47h-737v47z" />
<glyph unicode="`" horiz-adv-x="456" d="M29 1372h182l106 -285z" />
<glyph unicode="a" horiz-adv-x="907" d="M104 213q0 85 54 152q42 48 110 84q6 4 144 73q159 80 198 135q23 33 23 88q0 92 -10 144q-11 51 -55.5 81.5t-110.5 30.5q-61 0 -106.5 -26.5t-53.5 -65.5l-14 -69q-18 -84 -86 -84q-32 0 -54 21.5t-22 53.5q0 86 112 155t252 69q106 0 177 -37t96 -105q6 -30 6 -32 q4 -27 4 -142v-516v-24l1 -22q1 -22 1 -44q2 -58 10 -133h-151l6 154q-113 -179 -287 -179q-105 0 -174.5 67.5t-69.5 170.5zM254 246q0 -75 43.5 -119.5t114.5 -44.5q58 0 111.5 32t86.5 85q17 28 21 44.5t4 63.5v295q-94 -70 -182 -117q-89 -50 -126.5 -82.5t-56.5 -74.5 q-16 -54 -16 -82z" />
<glyph unicode="b" horiz-adv-x="1021" d="M135 1477h144v-611q41 86 114.5 133.5t167.5 47.5q166 0 265.5 -139.5t99.5 -372.5q0 -262 -119.5 -415t-323.5 -153q-52 0 -106 13q-7 0 -72 18q-54 12 -72 12q-58 0 -86 -28v1275q0 9 -2 25q0 23 -2 64q-3 87 -8 131zM276 221q0 -88 57 -139t154 -51q135 0 215 127.5 t80 343.5q0 204 -71 320t-197 116q-114 0 -176 -76t-62 -213v-200v-228z" />
<glyph unicode="c" horiz-adv-x="835" d="M98 508q0 146 39 256q41 124 145 206.5t218 82.5q57 0 164 -21q48 -10 53 -10t20 2t21 2v-125q-88 82 -213 82q-154 0 -221 -121q-76 -136 -76 -327q0 -200 81.5 -320.5t219.5 -120.5q81 0 176 45q33 16 66 41l-25 -92q-125 -106 -258 -106q-78 0 -158 38.5t-135 104.5 q-117 137 -117 383z" />
<glyph unicode="d" horiz-adv-x="1019" d="M98 498q0 136 25.5 230t85.5 171q122 166 313 166q103 0 221 -47v250v26v11l-2 55v63q0 27 -2 54h133v-1254q0 -12 2 -26v-64q0 -69 15 -133h-148v164q-57 -94 -126.5 -137t-161.5 -43q-164 0 -259.5 138t-95.5 376zM242 514q0 -196 69.5 -309t190.5 -113q98 0 165 62.5 t74 162.5q2 27 2 132v206v146q0 95 -55 151t-149 56q-141 0 -219 -129.5t-78 -364.5z" />
<glyph unicode="e" horiz-adv-x="948" d="M94 500q0 241 122 399t308 158q139 0 242.5 -100.5t103.5 -235.5q0 -25 -13.5 -34t-49.5 -9h-6h-33h-506q-14 -92 -14 -156q0 -202 80.5 -311t228.5 -109q76 0 161.5 37.5t153.5 100.5l-24 -97q-79 -81 -156 -116t-170 -35q-191 0 -309.5 140.5t-118.5 367.5zM272 735 h308q64 0 89 17t25 57q0 75 -54.5 129.5t-129.5 54.5q-88 0 -150 -67t-88 -191z" />
<glyph unicode="f" horiz-adv-x="468" d="M47 963v71h111v142q0 145 87 235t228 90q91 0 172 -45l-51 -82q-22 16 -41 27q-31 20 -46.5 24.5t-45.5 4.5q-93 0 -125 -46q-19 -27 -32 -81.5t-13 -102.5v-166h217v-71h-219v-805q0 -27 4 -64v-20l2 -31q0 -9 6 -43h-154q3 15 7 43q0 3 0.5 9l1.5 18l2 24q2 35 2 60 v809h-113z" />
<glyph unicode="g" horiz-adv-x="946" d="M16 -184q0 80 69 154.5t187 121.5q-23 9 -49 17q-57 19 -82.5 47t-25.5 71q0 49 56.5 86t174.5 68q-123 29 -189.5 116t-66.5 216q0 157 104 249.5t279 92.5q67 0 98 -8l88 -13h263v-63h-193q31 -31 43 -49q29 -35 46.5 -87.5t17.5 -105.5q0 -60 -18.5 -118t-51.5 -97 q-44 -56 -119 -88q-104 -51 -158 -64l-98 -26l-72 -21q-61 -16 -61 -63q0 -18 14 -29q18 -11 88 -24l48 -9l213 -45l71 -12l119 -27q96 -22 140 -59.5t44 -99.5q0 -66 -45 -127q-84 -116 -227.5 -186t-300.5 -70q-166 0 -286 74.5t-120 177.5zM164 -125q0 -94 96 -157.5 t238 -63.5t248 74.5t106 173.5q0 68 -64 86q-10 3 -55 12q-63 14 -67 16l-299 58q-203 -67 -203 -199zM233 737q0 -6 5 -51q14 -113 79 -179.5t162 -66.5q211 0 211 246q0 132 -67.5 217.5t-173.5 85.5q-94 0 -155 -71t-61 -181z" />
<glyph unicode="h" horiz-adv-x="1038" d="M135 0q10 64 10 131v55v9v26v1047v26q0 17 -2 27v39v63q0 18 -8 54h144v-580q79 85 159 123.5t174 38.5q118 0 201.5 -65.5t83.5 -157.5v-127v-488v-14v-12l2 -64v-65q1 -7 2 -15.5t3 -23.5t3 -27h-139v686q0 130 -18 170q-22 49 -71.5 77t-113.5 28q-117 0 -209 -76 q-60 -48 -75 -113q-2 -6 -2 -92v-459v-26v-64q0 -19 1 -40.5t1 -24.5q0 -22 8 -66h-154z" />
<glyph unicode="i" horiz-adv-x="430" d="M113 1294q0 45 30.5 76t73.5 31q45 0 76 -31t31 -76q0 -43 -31.5 -72.5t-75.5 -29.5q-43 0 -73.5 29.5t-30.5 72.5zM137 0q5 42 8 133l2 64v18v8v592v25v6v59l-2 66q0 13 -6 63h142v-813v-24v-4v-60q0 -53 2 -73t12 -60h-158z" />
<glyph unicode="j" horiz-adv-x="432" d="M20 -442q91 117 111 260q14 93 21 295q2 43 2 90v608v27v2l-2 61v64q0 9 -3 30t-4 39h138v-827l2 -92v-103q0 -140 -15.5 -210t-62.5 -134q-39 -54 -80 -77.5t-107 -32.5zM117 1298q0 43 32 73t76 30q41 0 71 -30t30 -71q0 -44 -31 -74t-74 -30t-73.5 29.5t-30.5 72.5z " />
<glyph unicode="k" horiz-adv-x="876" d="M135 0q10 47 10 106v25v29q2 20 2 35v26v1043l-2 26v2v64q0 74 -10 121h144v-879l28 29l58 51q101 91 168 187.5t67 148.5q0 2 -0.5 4t-1.5 6.5t-2 9.5h213q-37 -29 -43 -35q-10 -12 -59 -61l-70 -70l-96 -98l-103 -108l-39 -39l308 -410q10 -13 31.5 -42t29 -38.5 t21 -26.5t22 -26t16.5 -17q53 -38 95 -63h-230l-416 567v-346v-26v-2v-62q0 -51 15 -131h-156z" />
<glyph unicode="l" horiz-adv-x="430" d="M139 1477h142v-1256v-4q0 -1 1 -7.5t1 -12.5v-64q0 -20 1 -42t1 -25l12 -66h-156q6 58 6 66v65v27v39q5 17 5 24v1047v26v15v51q0 44 -13 117z" />
<glyph unicode="m" horiz-adv-x="1587" d="M135 0q10 46 10 70l2 61v64v26v592v25q-2 16 -2 65q0 78 -10 131h146v-100q134 125 297 125q183 0 270 -139q143 137 323 137q134 0 207.5 -69.5t73.5 -196.5v-9l-2 -172l-2 -200v-189l-2 -24v-7l2 -59v-65q5 -37 14 -66h-145v217v211v184v129q0 79 -19 125 q-20 42 -70.5 66t-115.5 24q-129 0 -205 -79q-27 -30 -36 -66.5t-9 -112.5q0 -63 2 -94q1 -13 1 -35.5t-0.5 -64.5t-0.5 -74v-51l-2 -158v-26v-64q0 -70 12 -131h-155q8 31 12 63v68l2 64v2v22q0 2 1 66t1 127v90v104v25q0 135 -3.5 168.5t-24.5 70.5q-23 40 -74.5 63 t-114.5 23q-124 0 -194 -79q-29 -34 -37 -66.5t-8 -120.5v-84v-205v-182v-26q0 -14 1 -36t1 -28q0 -56 2 -74.5t12 -54.5h-160z" />
<glyph unicode="n" horiz-adv-x="1038" d="M133 0q4 24 10 133l2 41v23q0 18 2 26v596q0 11 -2 25v63q0 64 -8 127h142v-131q150 160 325 160q66 0 125.5 -22t97.5 -60q43 -43 57.5 -94.5t14.5 -169.5q0 -17 -1 -51.5t-1 -53.5q-1 -19 -1 -99.5t-1 -123.5l-2 -166v-22q0 -17 2 -68l2 -57q0 -18 6 -76h-141v221v166 v229l2 152v4q0 87 -56 136.5t-153 49.5q-130 0 -217 -90q-41 -41 -50 -79.5t-9 -165.5v-19q0 -12 -1.5 -89t-1.5 -142v-150v-22v-4v-64q0 -15 1 -28t1.5 -20.5t0.5 -8.5v-6q0 -20 6 -70h-152z" />
<glyph unicode="o" horiz-adv-x="1091" d="M94 516q0 249 125 398t332 149q205 0 323.5 -140.5t118.5 -383.5q0 -162 -56.5 -290.5t-159 -200t-232.5 -71.5q-184 0 -309 133.5t-138 346.5q-4 18 -4 59zM244 567q0 -233 88.5 -380.5t228.5 -147.5q131 0 204 124t73 345q0 217 -86.5 354t-223.5 137 q-119 0 -193 -95.5t-89 -268.5q-2 -23 -2 -68z" />
<glyph unicode="p" horiz-adv-x="1017" d="M137 -414q6 49 6 66v4q0 1 0.5 8t1 21.5t0.5 31.5v66v24v1008v25v6v59l-2 66q0 30 -4 63h140v-168q112 183 284 183q164 0 262.5 -136.5t98.5 -361.5q0 -279 -115.5 -431.5t-327.5 -152.5q-63 0 -107.5 12t-99.5 44v-216v-26v-6l2 -58v-65q0 -8 7 -66h-146zM276 473 q0 -205 3 -240q0 -19 4 -59q8 -38 20 -61q23 -40 73 -64t109 -24q136 0 216.5 128t80.5 347q0 211 -70 324.5t-198 113.5q-87 0 -149.5 -49.5t-75.5 -130.5q-9 -33 -13 -78v-152v-55z" />
<glyph unicode="q" horiz-adv-x="1015" d="M94 551q0 224 99.5 361t261.5 137q172 0 284 -183v168h140q-2 -18 -2 -39q-3 -12 -3 -24q0 -2 -0.5 -10.5t-1 -23.5t-0.5 -32v-28v-37v-25v-1008v-24l2 -66v-61q0 -12 7 -70h-146q4 28 4 35q2 25 2 96v21l2 43v26v216q-52 -32 -95.5 -44t-108.5 -12q-213 0 -329 152.5 t-116 431.5zM240 473q0 -208 80 -328t215 -120q84 0 137.5 39.5t62.5 109.5q4 23 4 59q2 12 2 240v72q0 154 -10 213q-9 46 -24 69q-26 49 -83.5 80t-119.5 31q-129 0 -196.5 -113.5t-67.5 -328.5v-23z" />
<glyph unicode="r" horiz-adv-x="526" d="M131 0q16 65 16 131v64v26v592v27l-2 63v47v17q0 12 -10 67h146v-153q51 75 119 128.5t112 53.5h23q-13 -51 -19 -100q-6 -54 -8 -111q-70 51 -121 51q-19 0 -34 -14t-36 -49q-22 -40 -30 -76t-8 -96v-447v-14v-10l2 -64q2 -83 14 -133h-164z" />
<glyph unicode="s" horiz-adv-x="784" d="M59 147q49 -34 62 -41q49 -27 120 -45t126 -18q89 0 142.5 47.5t53.5 126.5q0 38 -16 88q-10 28 -43 66q-45 48 -168 114q-147 82 -201.5 143.5t-54.5 147.5q0 117 93 194t233 77q52 0 137 -17q46 -10 75 -10q15 0 29 2l29 -133q-57 41 -137 68.5t-140 27.5 q-76 0 -130 -48.5t-54 -117.5q0 -35 18 -65q17 -39 57.5 -72t125.5 -78q28 -15 55.5 -30t43 -23.5t22.5 -11.5q41 -28 79 -68q76 -82 76 -188q0 -141 -98.5 -223.5t-267.5 -82.5q-114 0 -226 39z" />
<glyph unicode="t" horiz-adv-x="499" d="M31 965v69h121v250l129 45v-295h186v-69h-186v-693q0 -77 8 -108q4 -41 30.5 -63.5t69.5 -22.5q61 0 109 51v-80q-29 -29 -78 -47t-96 -18q-81 0 -125.5 50t-44.5 138v94v699h-123z" />
<glyph unicode="u" horiz-adv-x="1046" d="M135 1034h141v-661v-72q0 -47 5 -82q9 -65 65.5 -105t138.5 -40q123 0 205 65q79 63 78 157v7l-2 82v426v27v18q0 10 -1 25.5t-1 19.5v64q0 34 -2 69h137v-813v-26v-2q0 -31 2 -62q2 -52 8 -131h-141v147q-129 -170 -336 -170q-139 0 -213 70t-74 201v10l2 113v440v27 q-2 6 -2 63q-2 65 -10 133z" />
<glyph unicode="v" horiz-adv-x="894" d="M8 1034h182q0 -10 0.5 -19t1 -16t2 -16t2 -13t3.5 -15t4 -15t5.5 -18.5t6.5 -20.5l14 -47q4 -6 9 -16l10 -27l239 -637l230 637l8 14l2 13q33 105 33 141q0 15 -6 55h131q-8 -18 -20 -43.5t-17 -38.5l-21 -51l-24 -63l-10 -27l-295 -811h-84l-305 811l-9 27l-8 16l-18 47 q-28 70 -66 133z" />
<glyph unicode="w" horiz-adv-x="1409" d="M53 1034h158l8 -39l6 -30l21 -64l16 -63l2 -7l4 -20l174 -627l193 672q12 32 12 66q0 15 -4 39l-16 51v4l-4 18h190q-16 -31 -16 -67q0 -46 20 -117l189 -678l190 639l6 27q29 128 29 141q0 15 -6 55h131q-13 -26 -51 -133l-23 -63q0 -3 -4 -11l-4 -14l-252 -813h-104 l-226 821l-229 -821h-113l-219 811l-6 27q-7 14 -21 63q-26 82 -51 133z" />
<glyph unicode="x" horiz-adv-x="966" d="M8 1034h228l245 -379l103 158l16 27q62 101 62 139q0 15 -15 55h182q-19 -22 -98 -131l-39 -53l-6 -10l-18 -25l-146 -217l269 -405q55 -80 116 -138q23 -22 68 -55h-225l-312 475l-164 -254l-18 -26q-57 -82 -57 -140q0 -20 14 -55h-203q25 21 70 66q14 16 50.5 67.5 t45.5 63.5l19 24l206 307l-249 373q-42 62 -80 92q-12 11 -64 41z" />
<glyph unicode="y" horiz-adv-x="892" d="M-139 -358q0 37 24.5 58t65.5 21q27 0 45 -10l41 -12q18 -6 51 -6q64 0 121 45q40 34 71.5 82.5t73.5 144.5q35 74 35 123q0 46 -18 96l-281 713q-22 56 -37.5 80.5t-48.5 56.5h211q3 -69 18 -106l252 -672l254 623q21 49 21 88q0 26 -17 67h162q-22 -23 -32 -40.5 t-33 -71.5l-447 -1031q-70 -164 -170 -248.5t-223 -84.5q-64 0 -101.5 23t-37.5 61z" />
<glyph unicode="z" horiz-adv-x="884" d="M2 0l627 975h-195q-33 0 -153 -12q-83 -9 -117.5 -18t-85.5 -34l31 123h731l-631 -960h287q178 0 374 73l-47 -147h-821z" />
<glyph unicode="{" horiz-adv-x="645" d="M113 737q56 5 90.5 45t34.5 101v696q0 119 149 119h96v-53h-22q-76 0 -98.5 -24.5t-22.5 -104.5v-627q0 -95 -78 -135q-29 -15 -51 -17q57 -6 93 -48t36 -103v-627q0 -80 22.5 -104.5t98.5 -24.5h22v-53h-96q-149 0 -149 119v696q0 97 -80 133q-21 9 -45 12z" />
<glyph unicode="|" horiz-adv-x="344" d="M113 0v1475h92v-1475h-92z" />
<glyph unicode="}" horiz-adv-x="645" d="M113 -170h22q76 0 98.5 24.5t22.5 104.5v627q0 61 36 103t93 48q-57 6 -93 48.5t-36 103.5v627q0 80 -22.5 104.5t-98.5 24.5h-22v53h96q149 0 149 -119v-696q0 -62 35 -101.5t90 -44.5q-55 -5 -90 -44t-35 -101v-696q0 -119 -149 -119h-96v53z" />
<glyph unicode="~" horiz-adv-x="729" d="M70 1604q13 93 58.5 144.5t113.5 51.5q46 0 90 -24l86 -47q60 -31 102 -31q37 0 69.5 19t72.5 63q-20 -101 -69.5 -154t-123.5 -53q-57 0 -94 22l-90 54q-43 24 -92 24q-29 0 -56 -14.5t-67 -54.5z" />
<glyph unicode="&#xa1;" horiz-adv-x="509" d="M127 1372l127 133l129 -133l-129 -127zM156 0l63 1120h66l61 -1120h-190z" />
<glyph unicode="&#xa2;" horiz-adv-x="858" d="M98 508q0 143 36 246.5t112 181.5q53 54 98.5 77.5t114.5 30.5v127h88v-122q40 -3 117 -15q11 -2 22.5 -4t17.5 -3t9 -1q1 0 9 -2t13 -2q2 0 9 2t14 2v-125q-88 82 -213 82q-154 0 -221 -121q-76 -136 -76 -327q0 -200 81.5 -320.5t219.5 -120.5q81 0 176 45q33 16 66 41 l-25 -92q-58 -49 -104.5 -71.5t-114.5 -34.5v-138h-88v146q-177 31 -269 163.5t-92 354.5z" />
<glyph unicode="&#xa3;" horiz-adv-x="1052" d="M70 0q149 119 211.5 209t62.5 188q0 96 -55 308h-176l28 81h129q-67 186 -67 308q0 184 112 292.5t303 108.5q87 0 209 -25l19 -4l10 -2l23 -176q-10 13 -31 29q-41 35 -72 57q-73 49 -164 49q-107 0 -174 -72t-67 -188q0 -131 43 -282q12 -46 30 -97h351l-35 -84h-301 q49 -183 49 -256q0 -88 -43.5 -162.5t-140.5 -150.5q122 -12 268 -12q117 0 187 18.5t128 65.5q59 52 86 82l21 22l-96 -307h-848z" />
<glyph unicode="&#xa4;" horiz-adv-x="1009" d="M113 440l135 135q-58 71 -58 162q0 93 56 164l-133 125l12 16l12 17l15 14l14 12l135 -129q55 40 121 51t131 -10q37 -10 80 -41l131 131q36 -29 57 -59l-135 -127q53 -73 52.5 -163.5t-54.5 -162.5l135 -137l-14 -12l-12 -14l-17 -15l-16 -12l-131 133q-74 -55 -164 -55 q-92 0 -164 57l-135 -133q-18 13 -41 39q-8 8 -12 14zM276 737q0 -77 55.5 -131.5t133.5 -54.5q76 0 131 55q56 56 56 132t-56 132q-54 54 -131 54q-78 0 -133.5 -55t-55.5 -132z" />
<glyph unicode="&#xa5;" horiz-adv-x="1284" d="M98 1477h203l418 -748l268 569q33 67 33 152q0 15 -2 27h168q-9 -16 -29 -45q-12 -23 -33 -62q-11 -20 -23 -41t-19.5 -33t-10.5 -20l-248 -533h353q-11 -34 -11 -53q0 -17 11 -51h-392q-10 -19 -12 -39h404q-11 -34 -11 -53q0 -17 11 -51h-414v-310q0 -4 0.5 -11.5 t1.5 -21.5t2 -26q3 -18 6 -61q0 -26 12 -66h-204q26 101 26 172l2 324h-418q11 34 11 51q0 19 -11 53h422l-10 39h-412q11 34 11 53q0 17 -11 51h359l-336 574q-35 57 -55 80l-39 47q-10 14 -21 33z" />
<glyph unicode="&#xa7;" horiz-adv-x="1165" d="M78 551q0 112 64 195t180 120q-136 106 -136 264q0 154 121.5 259.5t298.5 105.5q178 0 295.5 -109t126.5 -282h-149q-3 131 -79.5 211t-197.5 80q-104 0 -180 -73.5t-76 -174.5q0 -85 46.5 -147t133.5 -91l340 -110q104 -34 161.5 -113.5t57.5 -191.5q0 -108 -60.5 -186 t-172.5 -113q68 -56 98.5 -119t30.5 -142q0 -160 -117 -264t-297 -104q-184 0 -305 106t-121 267v24l148 -2q-4 -12 -4 -35q0 -107 83.5 -185.5t198.5 -78.5q111 0 183.5 70t72.5 180q0 181 -186 242l-338 108q-106 34 -163.5 109t-57.5 180zM236 573q0 -74 48.5 -133 t127.5 -82l290 -84q7 0 23 -1t23 -1q76 0 131 60t55 143q0 74 -43.5 131t-118.5 82l-303 96q-46 4 -55 4q-72 0 -125 -63.5t-53 -151.5z" />
<glyph unicode="&#xa8;" horiz-adv-x="602" d="M23 1225q0 41 30.5 71.5t71.5 30.5q42 0 71 -30t29 -72t-29 -72.5t-71 -30.5q-41 0 -71.5 30t-30.5 73zM377 1225q0 42 30 72t72 30t71.5 -30t29.5 -72q0 -41 -30 -72t-71 -31q-43 0 -72.5 30.5t-29.5 72.5z" />
<glyph unicode="&#xa9;" horiz-adv-x="1908" d="M119 739q0 152 58 293t165 248q147 146 343.5 198t393.5 0t344 -198q146 -147 198 -343.5t0 -393.5t-198 -344q-110 -110 -253 -167.5t-287.5 -57.5t-287.5 57.5t-253 167.5q-107 107 -165 247.5t-58 292.5zM203 739q0 -136 52.5 -263t147.5 -224q97 -99 224 -150.5 t255.5 -51.5t255.5 51.5t224 150.5q131 133 177.5 310t0 354.5t-177.5 310.5q-97 99 -224 150.5t-255.5 51.5t-255.5 -51.5t-224 -150.5q-95 -97 -147.5 -224.5t-52.5 -263.5zM388 740.5q3 90.5 36 179.5q65 175 225.5 265t356.5 58q137 -24 247 -117l-49 -69 q-86 80 -205 102q-120 24 -230 -15t-184 -129t-93 -210q-19 -113 12.5 -214t105.5 -175q105 -102 253.5 -117.5t279.5 63.5q33 20 57 44l51 -68q-140 -119 -336 -125q-90 -2 -173.5 24t-148 73.5t-112.5 115.5t-72 146t-21 168.5z" />
<glyph unicode="&#xaa;" horiz-adv-x="978" d="M119 1077q-12 72 0 140q27 144 138 222.5t239 51.5q112 -23 184 -139l10 -17l6 -14v154h97v-656h-99v164q-1 -3 -3 -8t-3 -8q-30 -76 -101.5 -120.5t-161.5 -43t-169 54.5q-110 74 -137 219zM135 625v90h658v-90h-658zM215 1149q0 -33 4 -49q21 -108 103 -164 q65 -44 136 -43t134 45q77 54 98 158q19 84 -16 164q-8 18 -21 38q-62 98 -175 110t-191 -73q-56 -59 -68 -139q-4 -16 -4 -47z" />
<glyph unicode="&#xab;" horiz-adv-x="882" d="M98 516l394 541l-244 -541l244 -539zM391 516l395 541l-241 -541l241 -539z" />
<glyph unicode="&#xac;" horiz-adv-x="1226" d="M113 737v92h909v-387h-86v295h-823z" />
<glyph unicode="&#xad;" horiz-adv-x="811" d="M76 504l78 131h581l-78 -131h-581z" />
<glyph unicode="&#xae;" horiz-adv-x="1908" d="M119 739q0 152 58 293t165 248q147 146 343.5 198t393.5 0t344 -198q146 -147 198 -343.5t0 -393.5t-198 -344q-110 -110 -253 -167.5t-287.5 -57.5t-287.5 57.5t-253 167.5q-107 107 -165 247.5t-58 292.5zM203 739q0 -136 52.5 -263t147.5 -224q97 -99 224 -150.5 t255.5 -51.5t255.5 51.5t224 150.5q131 133 177.5 310t0 354.5t-177.5 310.5q-97 99 -224 150.5t-255.5 51.5t-255.5 -51.5t-224 -150.5q-95 -97 -147.5 -224.5t-52.5 -263.5zM662 250v999h202q82 0 130 -14t87 -47q69 -56 84 -148q23 -129 -43 -217t-190 -102h-41l328 -471 h-117l-344 508v-508h-96zM758 784h86q111 0 169 49.5t60 139.5q1 92 -54.5 143t-158.5 51h-102v-383z" />
<glyph unicode="&#xaf;" horiz-adv-x="598" d="M63 1135v100h465v-100h-465z" />
<glyph unicode="&#xb1;" horiz-adv-x="1216" d="M90 39v139h946v-139h-946zM90 539v139h404v250h139v-250h403v-139h-403v-250h-139v250h-404z" />
<glyph unicode="&#xb4;" horiz-adv-x="452" d="M152 1090l106 282h182z" />
<glyph unicode="&#xb5;" horiz-adv-x="1275" d="M150 -285q0 5 0.5 19.5t1.5 43t2 56.5q4 132 4 182q0 117 -2 207q-4 180 -4 195v502h188v-607q0 -143 29 -194q27 -49 102 -49q117 -3 195 163q77 168 77 420v267h189v-672q0 -92 18 -135q18 -40 60 -43q41 0 65 43q23 44 23 125v28h43q0 -10 2 -18v-27q0 -114 -49 -178 q-46 -61 -136 -61q-98 -3 -155 88q-50 81 -53 264q-47 -182 -125 -266q-77 -83 -199 -86q-91 0 -150 53q-56 51 -81 158q0 -4 -1 -23.5t-1 -34.5q-3 -129 65 -289q66 -160 66 -188q0 -41 -23 -64q-22 -22 -63 -22q-47 -3 -68 35q-17 28 -20 108z" />
<glyph unicode="&#xb6;" horiz-adv-x="1292" d="M113 1100q0 155 109 265t263 110h598v-82h-600q-119 0 -204 -87.5t-82 -211.5q1 -121 85.5 -205t202.5 -84h150v512h82v-1317h-82v723h-150q-154 0 -263 110t-109 267zM862 0v1317h82v-1317h-82z" />
<glyph unicode="&#xb7;" horiz-adv-x="391" d="M70 516l125 129l129 -129l-129 -133z" />
<glyph unicode="&#xb8;" horiz-adv-x="352" d="M98 -346l19 6l37 6q32 4 51.5 23t19.5 45q0 29 -12.5 40t-69.5 33l72 193h47l-16 -49q-3 -5 -6 -25q-4 -10 -7 -14q-4 -6 -4 -12q0 -9 6.5 -14.5t40.5 -26.5q54 -38 54 -95q0 -52 -45 -88t-111 -36q-35 0 -76 14z" />
<glyph unicode="&#xba;" horiz-adv-x="983" d="M113 1153q0 33 6 68q20 110 90.5 183t173.5 95q71 15 141 0q105 -22 176 -96t91 -182q12 -66 0 -136q-20 -107 -92 -181.5t-175 -96.5q-71 -15 -139 0q-104 22 -175 96t-91 182q-6 34 -6 68zM125 625v90h659v-90h-659zM213 1153q0 -110 66 -182q53 -58 127 -73t143 16 t110 100q37 63 37 139q0 78 -37 141q-41 69 -110 100t-143 16t-127 -73q-66 -72 -66 -184z" />
<glyph unicode="&#xbb;" horiz-adv-x="882" d="M98 -23l242 539l-242 541l394 -541zM391 -23l244 539l-244 541l395 -541z" />
<glyph unicode="&#xbf;" horiz-adv-x="757" d="M82 297q0 149 121 276l116 121q110 116 125 236q9 66 13 200h78v-38v-58l8 -123v-16q0 -61 -25 -104q-6 -12 -16.5 -28t-36 -52t-49.5 -72l-31 -45q-83 -120 -108 -175t-25 -122q0 -97 60 -154t161 -57q136 0 244 96v-110q-137 -95 -281 -95q-156 0 -255 90t-99 230z M365 1366l129 133l127 -133l-127 -129z" />
<glyph unicode="&#xc0;" horiz-adv-x="1284" d="M-20 0q52 77 98 182q27 53 51 117l92 240l76 192l164 428l47 121q18 48 18 90q0 51 -22 107h170l246 -594q13 -32 33.5 -85.5t29.5 -76.5q118 -294 162 -395q55 -133 123 -248q19 -34 51 -78h-219q-8 56 -17 88t-34 92l-37 88l-4 13l-7 16l-161 381h-484l-141 -379 l-8 -23q-55 -150 -55 -217q0 -5 4 -59h-176zM334 1886h182l107 -284zM377 737h440l-235 555z" />
<glyph unicode="&#xc1;" horiz-adv-x="1284" d="M-20 0q52 77 98 182q27 53 51 117l92 240l76 192l164 428l47 121q18 48 18 90q0 51 -22 107h170l246 -594q13 -32 33.5 -85.5t29.5 -76.5q118 -294 162 -395q55 -133 123 -248q19 -34 51 -78h-219q-8 56 -17 88t-34 92l-37 88l-4 13l-7 16l-161 381h-484l-141 -379 l-8 -23q-55 -150 -55 -217q0 -5 4 -59h-176zM377 737h440l-235 555zM598 1604l107 282h182z" />
<glyph unicode="&#xc2;" horiz-adv-x="1284" d="M-20 0q52 77 98 182q27 53 51 117l92 240l76 192l164 428l47 121q18 48 18 90q0 51 -22 107h170l246 -594q13 -32 33.5 -85.5t29.5 -76.5q118 -294 162 -395q55 -133 123 -248q19 -34 51 -78h-219q-8 56 -17 88t-34 92l-37 88l-4 13l-7 16l-161 381h-484l-141 -379 l-8 -23q-55 -150 -55 -217q0 -5 4 -59h-176zM377 737h440l-235 555zM395 1595l187 287h69l187 -283l-217 140z" />
<glyph unicode="&#xc3;" horiz-adv-x="1284" d="M-20 0q52 77 98 182q27 53 51 117l92 240l76 192l164 428l47 121q18 48 18 90q0 51 -22 107h170l246 -594q13 -32 33.5 -85.5t29.5 -76.5q118 -294 162 -395q55 -133 123 -248q19 -34 51 -78h-219q-8 56 -17 88t-34 92l-37 88l-4 13l-7 16l-161 381h-484l-141 -379 l-8 -23q-55 -150 -55 -217q0 -5 4 -59h-176zM375 1653q9 86 47 132t100 46q43 0 76 -16l74 -37q47 -23 82 -23t63.5 17.5t65.5 60.5q-15 -93 -58 -142t-110 -49q-40 0 -76 19l-80 43q-32 16 -70 16q-33 0 -55.5 -13t-58.5 -54zM377 737h440l-235 555z" />
<glyph unicode="&#xc4;" horiz-adv-x="1284" d="M-27 0q55 82 99 182q27 53 51 117l92 240l76 192l164 428l47 121q18 48 18 90q0 51 -22 107h170l245 -594q13 -32 34 -86t30 -76q118 -294 162 -395q55 -133 123 -248q19 -34 51 -78h-219q-8 55 -17 87t-35 93l-36 88l-5 13l-6 16l-161 381h-484l-141 -379l-8 -23 q-56 -153 -56 -217q0 -5 1 -13.5t2 -21.5t2 -24h-177zM266 1696q0 54 36.5 91.5t88.5 37.5t88.5 -37.5t36.5 -91.5q0 -52 -36.5 -89.5t-88.5 -37.5t-88.5 37.5t-36.5 89.5zM371 737h440l-236 555zM682 1696q0 54 36.5 91.5t90.5 37.5q52 0 88.5 -37.5t36.5 -91.5 q0 -52 -36.5 -89.5t-88.5 -37.5q-53 0 -90 37.5t-37 89.5z" />
<glyph unicode="&#xc5;" horiz-adv-x="1267" d="M-27 0q55 82 99 182q27 53 51 117l92 240l76 192l164 428l47 121q18 48 18 90q0 51 -22 107h170l245 -594q13 -32 34 -86t30 -76q118 -294 162 -395q55 -133 123 -248q19 -34 51 -78h-219q-8 55 -17 87t-35 93l-36 88l-5 13l-6 16l-161 381h-484l-141 -379l-8 -23 q-56 -153 -56 -217q0 -5 1 -13.5t2 -21.5t2 -24h-177zM371 737h440l-236 555zM440 1659q0 61 45.5 105t108.5 44q64 0 107.5 -43.5t43.5 -105.5q0 -65 -44 -111.5t-107 -46.5t-108.5 46.5t-45.5 111.5zM500 1659q0 -40 27 -69t65 -29t64 28.5t26 67.5q0 36 -26 62t-62 26 q-39 0 -66.5 -25t-27.5 -61z" />
<glyph unicode="&#xc6;" horiz-adv-x="1916" d="M-29 0q46 39 56 51q89 83 170 191l774 1063q40 53 49 172h731l23 -123q-22 7 -80 20q-139 27 -236 27h-295v-588h207q70 0 107 6q5 1 104 23q11 4 61 14v-164q-47 18 -63 23q-80 22 -209 22h-213v-655h320q152 0 424 55l-99 -137h-829q37 90 37 213v377h-465l-223 -326 q-62 -94 -70 -108q-45 -79 -68 -156h-213zM598 659h406v582z" />
<glyph unicode="&#xc7;" horiz-adv-x="1251" d="M98 721q0 162 50.5 305t138 245.5t210 162t261.5 59.5q30 0 219 -23l63 -8q11 -1 27 -3.5t24 -3.5t11 -1q14 0 26 2l19 -172q-84 63 -190 99t-203 36q-219 0 -346 -183.5t-127 -498.5q0 -312 133 -495t360 -183q115 0 214 55t202 175l-47 -162q-32 -29 -45 -37 q-56 -42 -137 -72q-48 -19 -89.5 -28t-111.5 -15l-12 -26q-4 -16 -7 -25l-4 -16q-1 -4 -2.5 -7t-1.5 -5q0 -9 6.5 -14.5t40.5 -26.5q51 -34 51 -93q0 -53 -44.5 -90t-108.5 -37q-37 0 -78 17l23 2l32 8q35 4 55.5 23.5t20.5 46.5q0 26 -14 38.5t-68 34.5l66 172 q-124 13 -195 41q-199 76 -310.5 262.5t-111.5 440.5z" />
<glyph unicode="&#xc8;" horiz-adv-x="1052" d="M141 0q19 80 21 164q4 58 4 88v2v1040q0 68 -2 78q0 7 -8 64q0 11 -9 41h760l23 -127q-119 51 -303 51h-308v-588h236q147 0 252 43v-162q-57 25 -111.5 34t-142.5 9h-234v-655h381h131q87 0 222 55l-95 -137h-817zM307 1886h182l107 -284z" />
<glyph unicode="&#xc9;" horiz-adv-x="1052" d="M141 0q19 80 21 164q4 58 4 88v2v1040q0 68 -2 78q0 7 -8 64q0 11 -9 41h760l23 -127q-119 51 -303 51h-308v-588h236q147 0 252 43v-162q-57 25 -111.5 34t-142.5 9h-234v-655h381h131q87 0 222 55l-95 -137h-817zM510 1604l106 282h183z" />
<glyph unicode="&#xca;" horiz-adv-x="1052" d="M141 0q19 80 21 164q4 58 4 88v2v1040q0 68 -2 78q0 7 -8 64q0 11 -9 41h760l23 -127q-119 51 -303 51h-308v-588h236q147 0 252 43v-162q-57 25 -111.5 34t-142.5 9h-234v-655h381h131q87 0 222 55l-95 -137h-817zM322 1595l186 287h70l186 -283l-217 140z" />
<glyph unicode="&#xcb;" horiz-adv-x="1052" d="M141 0q19 80 21 164q4 58 4 88v2v1040q0 68 -2 78q0 7 -8 64q0 11 -9 41h760l23 -127q-119 51 -303 51h-308v-588h236q147 0 252 43v-162q-57 25 -111.5 34t-142.5 9h-234v-655h381h131q87 0 222 55l-95 -137h-817zM266 1739q0 41 31 71.5t72 30.5q42 0 71 -30t29 -72 t-29 -72.5t-71 -30.5t-72.5 30.5t-30.5 72.5zM621 1739q0 42 30 72t72 30t71 -30t29 -72t-29.5 -72.5t-70.5 -30.5q-43 0 -72.5 30.5t-29.5 72.5z" />
<glyph unicode="&#xcc;" horiz-adv-x="481" d="M-18 1886h182l106 -284zM139 0q17 65 19 90q2 16 2.5 58.5t3.5 91.5l2 28v13v4v889v10v18q0 20 -1 49t-1 39q-2 93 -25 187h205q-23 -81 -25 -187l-2 -88v-28v-877v-4v-25l2 -88q1 -67 5.5 -97t19.5 -83h-205z" />
<glyph unicode="&#xcd;" horiz-adv-x="481" d="M139 0q17 65 19 90q2 16 2.5 58.5t3.5 91.5l2 28v13v4v889v10v18q0 20 -1 49t-1 39q-2 93 -25 187h205q-23 -81 -25 -187l-2 -88v-28v-877v-4v-25l2 -88q1 -67 5.5 -97t19.5 -83h-205zM233 1604l107 282h182z" />
<glyph unicode="&#xce;" horiz-adv-x="481" d="M23 1595l186 287h70l186 -283l-217 140zM139 0q17 65 19 90q2 16 2.5 58.5t3.5 91.5l2 28v13v4v889v10v18q0 20 -1 49t-1 39q-2 93 -25 187h205q-23 -81 -25 -187l-2 -88v-28v-877v-4v-25l2 -88q1 -67 5.5 -97t19.5 -83h-205z" />
<glyph unicode="&#xcf;" horiz-adv-x="481" d="M-29 1739q0 41 31 71.5t72 30.5q42 0 71 -30t29 -72t-29 -72.5t-71 -30.5t-72.5 30.5t-30.5 72.5zM139 0q17 65 19 90q2 16 2.5 58.5t3.5 91.5l2 28v13v4v889v10v18q0 20 -1 49t-1 39q-2 93 -25 187h205q-23 -81 -25 -187l-2 -88v-28v-877v-4v-25l2 -88q1 -67 5.5 -97 t19.5 -83h-205zM326 1739q0 42 30 72t72 30t71 -30t29 -72t-29.5 -72.5t-70.5 -30.5q-43 0 -72.5 30.5t-29.5 72.5z" />
<glyph unicode="&#xd1;" horiz-adv-x="1409" d="M127 1477h149l889 -1184v887v28l-2 47v43q0 71 -18 179h121q-21 -111 -21 -183v-2v-84v-28v-1180h-65l-938 1255v-958v-29q2 -6 2 -22v-66q0 -94 22 -180h-123q18 76 21 180l2 88v29v903q0 102 -10 172q-9 67 -29 105zM489 1653q9 86 47.5 132t100.5 46q43 0 76 -16 l73 -37q47 -23 82 -23t63.5 17.5t65.5 60.5q-15 -93 -58 -142t-110 -49q-39 0 -75 19l-80 43q-32 16 -70 16q-33 0 -56 -13t-59 -54z" />
<glyph unicode="&#xd2;" horiz-adv-x="1544" d="M104 725v35q0 338 248 559q99 87 201 126.5t229 39.5q183 0 334 -98.5t237.5 -270.5t86.5 -381q0 -271 -146 -479q-187 -272 -528 -272q-193 0 -344 93t-234.5 262t-83.5 386zM291 735q0 -196 60.5 -350t169.5 -240t249 -86q141 0 250.5 86t170 241t60.5 353 q0 318 -128 498t-353 180q-226 0 -352.5 -180.5t-126.5 -501.5zM532 1886h183l106 -284z" />
<glyph unicode="&#xd3;" horiz-adv-x="1544" d="M104 725v35q0 338 248 559q99 87 201 126.5t229 39.5q183 0 334 -98.5t237.5 -270.5t86.5 -381q0 -271 -146 -479q-187 -272 -528 -272q-193 0 -344 93t-234.5 262t-83.5 386zM291 735q0 -196 60.5 -350t169.5 -240t249 -86q141 0 250.5 86t170 241t60.5 353 q0 318 -128 498t-353 180q-226 0 -352.5 -180.5t-126.5 -501.5zM772 1604l107 282h182z" />
<glyph unicode="&#xd4;" horiz-adv-x="1544" d="M104 725v35q0 338 248 559q99 87 201 126.5t229 39.5q183 0 334 -98.5t237.5 -270.5t86.5 -381q0 -271 -146 -479q-187 -272 -528 -272q-193 0 -344 93t-234.5 262t-83.5 386zM291 735q0 -196 60.5 -350t169.5 -240t249 -86q141 0 250.5 86t170 241t60.5 353 q0 318 -128 498t-353 180q-226 0 -352.5 -180.5t-126.5 -501.5zM559 1595l186 287h70l186 -283l-217 140z" />
<glyph unicode="&#xd5;" horiz-adv-x="1544" d="M104 725v35q0 338 248 559q99 87 201 126.5t229 39.5q183 0 334 -98.5t237.5 -270.5t86.5 -381q0 -271 -146 -479q-187 -272 -528 -272q-193 0 -344 93t-234.5 262t-83.5 386zM291 735q0 -196 60.5 -350t169.5 -240t249 -86q141 0 250.5 86t170 241t60.5 353 q0 318 -128 498t-353 180q-226 0 -352.5 -180.5t-126.5 -501.5zM553 1653q9 86 47 132t100 46q43 0 76 -16l74 -37q47 -23 82 -23t63.5 17.5t65.5 60.5q-15 -93 -58 -142t-110 -49q-40 0 -76 19l-80 43q-32 16 -69 16q-33 0 -56 -13t-59 -54z" />
<glyph unicode="&#xd6;" horiz-adv-x="1544" d="M98 725v35q0 338 248 559q99 87 201 126.5t229 39.5q183 0 334 -98.5t237.5 -270.5t86.5 -381q0 -271 -146 -479q-187 -272 -528 -272q-193 0 -344 93t-234.5 262t-83.5 386zM285 735q0 -196 60.5 -350t169.5 -240t249 -86q141 0 250.5 86t170 241t60.5 353 q0 318 -128 498t-353 180q-226 0 -352.5 -180.5t-126.5 -501.5zM449 1696q0 54 36 91.5t88 37.5t88.5 -37.5t36.5 -91.5q0 -52 -36.5 -89.5t-88.5 -37.5t-88 37.5t-36 89.5zM864 1696q0 54 36.5 91.5t90.5 37.5q52 0 88.5 -37.5t36.5 -91.5q0 -52 -36.5 -89.5t-88.5 -37.5 q-53 0 -90 37.5t-37 89.5z" />
<glyph unicode="&#xd7;" d="M160 420l315 315l-315 320l94 94l317 -318l320 320l92 -92l-319 -320l317 -317l-96 -96l-316 317l-317 -315z" />
<glyph unicode="&#xd8;" horiz-adv-x="1529" d="M98 727q0 161 51 302t140.5 241t214.5 157.5t268 57.5q95 0 193 -29q69 -22 119 -55.5t122 -106.5l158 193l45 -35l-162 -190q46 -59 66 -91q119 -186 119 -436q0 -269 -144 -479q-187 -272 -530 -272q-168 0 -299 67q-60 28 -133 96l-154 -182l-41 31l158 190 q-48 51 -60 70q-131 185 -131 471zM283 727q0 -165 43 -293q15 -43 53 -127l749 901q-22 40 -32 52q-59 63 -155.5 106t-182.5 43q-93 0 -193.5 -50t-156.5 -124q-70 -92 -97 -227q-28 -140 -28 -281zM410 252q36 -45 58 -67.5t52 -43.5q118 -82 244 -82q141 0 249.5 86.5 t168 243t59.5 359.5q0 211 -49 333q-5 9 -16.5 34t-18.5 38z" />
<glyph unicode="&#xd9;" horiz-adv-x="1376" d="M141 1477h191q-11 -64 -13 -95q0 -7 -1 -37t-1 -53v-35v-4v-49v-30v-781q0 -313 334 -313q97 0 182 32.5t142 90.5q52 55 68 108t16 172v691v16v12v84q0 94 -23 191h189q-8 -90 -8 -95q-5 -41 -5 -178v-30v-877v-8v-21v-88q0 -80 20 -166q2 -9 3 -14h-176v188 q-97 -108 -223.5 -164.5t-272.5 -56.5q-218 0 -330 121q-44 47 -56.5 96t-12.5 170v822v28v49v39q0 93 -23 185zM504 1886h182l107 -284z" />
<glyph unicode="&#xda;" horiz-adv-x="1376" d="M141 1477h191q-11 -64 -13 -95q0 -7 -1 -37t-1 -53v-35v-4v-49v-30v-781q0 -313 334 -313q97 0 182 32.5t142 90.5q52 55 68 108t16 172v691v16v12v84q0 94 -23 191h189q-8 -90 -8 -95q-5 -41 -5 -178v-30v-877v-8v-21v-88q0 -80 20 -166q2 -9 3 -14h-176v188 q-97 -108 -223.5 -164.5t-272.5 -56.5q-218 0 -330 121q-44 47 -56.5 96t-12.5 170v822v28v49v39q0 93 -23 185zM692 1604l107 282h182z" />
<glyph unicode="&#xdb;" horiz-adv-x="1376" d="M141 1477h191q-11 -64 -13 -95q0 -7 -1 -37t-1 -53v-35v-4v-49v-30v-781q0 -313 334 -313q97 0 182 32.5t142 90.5q52 55 68 108t16 172v691v16v12v84q0 94 -23 191h189q-8 -90 -8 -95q-5 -41 -5 -178v-30v-877v-8v-21v-88q0 -80 20 -166q2 -9 3 -14h-176v188 q-97 -108 -223.5 -164.5t-272.5 -56.5q-218 0 -330 121q-44 47 -56.5 96t-12.5 170v822v28v49v39q0 93 -23 185zM483 1595l187 287h69l187 -283l-217 140z" />
<glyph unicode="&#xdc;" horiz-adv-x="1376" d="M119 1477h190q-9 -54 -12 -95q0 -7 -1 -37t-1 -53v-35v-4v-49v-30v-781q0 -313 334 -313q97 0 181.5 32t141.5 91q52 55 68 108t16 172v691v16v12v84q0 98 -22 191h188q-8 -90 -8 -95q-4 -33 -4 -178v-30v-877v-8v-21v-88q0 -42 2.5 -71.5t6 -47.5t13.5 -61h-176v188 q-199 -221 -495 -221q-218 0 -330 121q-44 47 -57 96.5t-13 169.5v822v28v49v39q0 97 -22 185zM350 1696q0 54 36.5 91.5t88.5 37.5t88.5 -37.5t36.5 -91.5q0 -52 -36.5 -89.5t-88.5 -37.5t-88.5 37.5t-36.5 89.5zM766 1696q0 54 36.5 91.5t90.5 37.5q52 0 88.5 -37.5 t36.5 -91.5q0 -52 -36.5 -89.5t-88.5 -37.5q-53 0 -90 37.5t-37 89.5z" />
<glyph unicode="&#xdf;" horiz-adv-x="1181" d="M119 0q20 71 20 145v938q0 139 49 226q49 86 154 141t221 55q135 0 227.5 -66t92.5 -163q0 -49 -23 -99t-72 -116l-51 -68q-2 -2 -8 -10.5t-17.5 -23.5t-23.5 -31q-31 -45 -42 -68.5t-11 -46.5q0 -67 137 -145l113 -64q100 -58 129 -82q84 -68 84 -178q0 -89 -61 -172.5 t-158 -124.5q-166 -72 -326 -59l-27 2v166q41 -45 78 -61.5t96 -16.5q104 0 185.5 66t81.5 149q0 63 -39.5 109.5t-145.5 109.5l-155 92q-11 5 -72 60q-36 34 -48.5 55.5t-12.5 48.5q0 30 16 51q8 15 41 62l53 77l58 86q29 44 52 103.5t23 91.5q0 86 -54.5 142.5 t-137.5 56.5q-123 0 -198 -91t-75 -239v-989q0 -60 21 -119h-174z" />
<glyph unicode="&#xe0;" horiz-adv-x="907" d="M104 213q0 85 54 152q42 48 110 84q6 4 144 73q159 80 198 135q23 33 23 88q0 92 -10 144q-11 51 -55.5 81.5t-110.5 30.5q-61 0 -106.5 -26.5t-53.5 -65.5l-14 -69q-18 -84 -86 -84q-32 0 -54 21.5t-22 53.5q0 86 112 155t252 69q106 0 177 -37t96 -105q6 -30 6 -32 q4 -27 4 -142v-516v-24l1 -22q1 -22 1 -44q2 -58 10 -133h-151l6 154q-113 -179 -287 -179q-105 0 -174.5 67.5t-69.5 170.5zM244 1372h182l106 -285zM254 246q0 -75 43.5 -119.5t114.5 -44.5q58 0 111.5 32t86.5 85q17 28 21 44.5t4 63.5v295q-94 -70 -182 -117 q-89 -50 -126.5 -82.5t-56.5 -74.5q-16 -54 -16 -82z" />
<glyph unicode="&#xe1;" horiz-adv-x="907" d="M104 213q0 85 54 152q42 48 110 84q6 4 144 73q159 80 198 135q23 33 23 88q0 92 -10 144q-11 51 -55.5 81.5t-110.5 30.5q-61 0 -106.5 -26.5t-53.5 -65.5l-14 -69q-18 -84 -86 -84q-32 0 -54 21.5t-22 53.5q0 86 112 155t252 69q106 0 177 -37t96 -105q6 -30 6 -32 q4 -27 4 -142v-516v-24l1 -22q1 -22 1 -44q2 -58 10 -133h-151l6 154q-113 -179 -287 -179q-105 0 -174.5 67.5t-69.5 170.5zM254 246q0 -75 43.5 -119.5t114.5 -44.5q58 0 111.5 32t86.5 85q17 28 21 44.5t4 63.5v295q-94 -70 -182 -117q-89 -50 -126.5 -82.5t-56.5 -74.5 q-16 -54 -16 -82zM440 1090l107 282h182z" />
<glyph unicode="&#xe2;" horiz-adv-x="907" d="M104 213q0 85 54 152q42 48 110 84q6 4 144 73q159 80 198 135q23 33 23 88q0 92 -10 144q-11 51 -55.5 81.5t-110.5 30.5q-61 0 -106.5 -26.5t-53.5 -65.5l-14 -69q-18 -84 -86 -84q-32 0 -54 21.5t-22 53.5q0 86 112 155t252 69q106 0 177 -37t96 -105q6 -30 6 -32 q4 -27 4 -142v-516v-24l1 -22q1 -22 1 -44q2 -58 10 -133h-151l6 154q-113 -179 -287 -179q-105 0 -174.5 67.5t-69.5 170.5zM254 246q0 -75 43.5 -119.5t114.5 -44.5q58 0 111.5 32t86.5 85q17 28 21 44.5t4 63.5v295q-94 -70 -182 -117q-89 -50 -126.5 -82.5t-56.5 -74.5 q-16 -54 -16 -82zM264 1081l187 287h69l187 -283l-218 140z" />
<glyph unicode="&#xe3;" horiz-adv-x="907" d="M104 213q0 85 54 152q42 48 110 84q6 4 144 73q159 80 198 135q23 33 23 88q0 92 -10 144q-11 51 -55.5 81.5t-110.5 30.5q-61 0 -106.5 -26.5t-53.5 -65.5l-14 -69q-18 -84 -86 -84q-32 0 -54 21.5t-22 53.5q0 86 112 155t252 69q106 0 177 -37t96 -105q6 -30 6 -32 q4 -27 4 -142v-516v-24l1 -22q1 -22 1 -44q2 -58 10 -133h-151l6 154q-113 -179 -287 -179q-105 0 -174.5 67.5t-69.5 170.5zM244 1139q9 86 47 132t100 46q41 0 76 -17l74 -36q47 -23 82 -23t63.5 17.5t65.5 60.5q-15 -93 -58 -142t-110 -49q-40 0 -76 19l-80 43 q-32 16 -70 16q-33 0 -55.5 -13t-58.5 -54zM254 246q0 -75 43.5 -119.5t114.5 -44.5q58 0 111.5 32t86.5 85q17 28 21 44.5t4 63.5v295q-94 -70 -182 -117q-89 -50 -126.5 -82.5t-56.5 -74.5q-16 -54 -16 -82z" />
<glyph unicode="&#xe4;" horiz-adv-x="907" d="M104 213q0 85 54 152q42 48 110 84q6 4 144 73q159 80 198 135q23 33 23 88q0 92 -10 144q-11 51 -55.5 81.5t-110.5 30.5q-61 0 -106.5 -26.5t-53.5 -65.5l-14 -69q-18 -84 -86 -84q-32 0 -54 21.5t-22 53.5q0 86 112 155t252 69q106 0 177 -37t96 -105q6 -30 6 -32 q4 -27 4 -142v-516v-24l1 -22q1 -22 1 -44q2 -58 10 -133h-151l6 154q-113 -179 -287 -179q-105 0 -174.5 67.5t-69.5 170.5zM211 1214q0 41 30.5 72t71.5 31q42 0 71.5 -30.5t29.5 -72.5t-29.5 -72t-71.5 -30t-72 30t-30 72zM254 246q0 -75 43.5 -119.5t114.5 -44.5 q58 0 111.5 32t86.5 85q17 28 21 44.5t4 63.5v295q-94 -70 -182 -117q-89 -50 -126.5 -82.5t-56.5 -74.5q-16 -54 -16 -82zM565 1214q0 42 30.5 72.5t72.5 30.5t71 -30.5t29 -72.5q0 -41 -29.5 -71.5t-70.5 -30.5q-44 0 -73.5 30t-29.5 72z" />
<glyph unicode="&#xe5;" horiz-adv-x="907" d="M104 213q0 85 54 152q42 48 110 84q6 4 144 73q159 80 198 135q23 33 23 88q0 92 -10 144q-11 51 -55.5 81.5t-110.5 30.5q-61 0 -106.5 -26.5t-53.5 -65.5l-14 -69q-18 -84 -86 -84q-32 0 -54 21.5t-22 53.5q0 86 112 155t252 69q106 0 177 -37t96 -105q6 -30 6 -32 q4 -27 4 -142v-516v-24l1 -22q1 -22 1 -44q2 -58 10 -133h-151l6 154q-113 -179 -287 -179q-105 0 -174.5 67.5t-69.5 170.5zM254 246q0 -75 43.5 -119.5t114.5 -44.5q58 0 111.5 32t86.5 85q17 28 21 44.5t4 63.5v295q-94 -70 -182 -117q-89 -50 -126.5 -82.5t-56.5 -74.5 q-16 -54 -16 -82zM371 1249q0 58 40 97.5t99 39.5t99 -39.5t40 -97.5q0 -59 -40.5 -99t-98.5 -40t-98.5 40t-40.5 99zM424 1251q-1 -36 23.5 -62t60.5 -26q34 0 59 25.5t25 60.5q0 32 -25 56t-57 24q-35 0 -60.5 -23t-25.5 -55z" />
<glyph unicode="&#xe6;" horiz-adv-x="1478" d="M90 221q0 42 16 82q27 60 72 94.5t193 106.5q22 11 112 63q78 44 103 80q19 22 25.5 52t6.5 94q0 108 -39.5 159.5t-123.5 51.5q-72 0 -125.5 -29t-55.5 -68l-2 -59q-2 -40 -25 -65t-61 -25q-32 0 -52.5 22t-20.5 56q0 49 43 95.5t118 78.5q97 43 195 43q231 0 274 -152 q106 154 299 154q141 0 241.5 -97.5t100.5 -232.5q0 -32 -20.5 -40.5t-97.5 -8.5h-492q-10 -79 -10 -148q0 -204 81.5 -317t229.5 -113q114 0 215 66q24 12 70 49l29 23l-27 -101q-157 -151 -322 -151q-113 0 -213 68.5t-151 180.5q-65 -122 -154.5 -189t-187.5 -67 q-106 0 -175 69t-69 175zM242 256q0 -74 44 -124t111 -50q51 0 105 30t88 76q28 43 28 119v29v260q-27 -24 -40 -33q-37 -26 -70 -43q-7 -3 -20.5 -11t-35.5 -20.5t-42 -23.5q-93 -49 -130.5 -96t-37.5 -113zM786 729h304q70 0 98.5 18t28.5 62q0 72 -58.5 128t-132.5 56 q-86 0 -151.5 -71.5t-88.5 -192.5z" />
<glyph unicode="&#xe7;" horiz-adv-x="874" d="M104 508q0 146 39 256q43 125 146.5 207t220.5 82q57 0 164 -21q45 -10 51 -10q4 0 19 2t20 2v-125q-88 82 -213 82q-74 0 -131.5 -31.5t-89.5 -89.5q-76 -136 -76 -327q0 -199 83 -320t218 -121q105 0 176 45q7 2 13 4t13.5 6.5t11 7.5t14.5 11t16 12l-25 -92 q-56 -48 -106.5 -71t-124.5 -33l-13 -27q-2 -5 -6 -23q-3 -12 -6 -18q-2 -4 -2 -10q0 -11 6.5 -17t40.5 -26q53 -32 53 -90q0 -54 -45 -91.5t-110 -37.5q-41 0 -78 18l20 2l35 6q34 6 54 25t20 47q0 26 -13.5 38t-68.5 34l66 168q-76 13 -121 30q-271 116 -271 496z" />
<glyph unicode="&#xe8;" horiz-adv-x="948" d="M94 500q0 241 122 399t308 158q139 0 242.5 -100.5t103.5 -235.5q0 -25 -13.5 -34t-49.5 -9h-6h-33h-506q-14 -92 -14 -156q0 -202 80.5 -311t228.5 -109q76 0 161.5 37.5t153.5 100.5l-24 -97q-79 -81 -156 -116t-170 -35q-191 0 -309.5 140.5t-118.5 367.5zM260 1372 h182l107 -285zM272 735h308q64 0 89 17t25 57q0 75 -54.5 129.5t-129.5 54.5q-88 0 -150 -67t-88 -191z" />
<glyph unicode="&#xe9;" horiz-adv-x="948" d="M94 500q0 241 122 399t308 158q139 0 242.5 -100.5t103.5 -235.5q0 -25 -13.5 -34t-49.5 -9h-6h-33h-506q-14 -92 -14 -156q0 -202 80.5 -311t228.5 -109q76 0 161.5 37.5t153.5 100.5l-24 -97q-79 -81 -156 -116t-170 -35q-191 0 -309.5 140.5t-118.5 367.5zM272 735 h308q64 0 89 17t25 57q0 75 -54.5 129.5t-129.5 54.5q-88 0 -150 -67t-88 -191zM481 1090l107 282h182z" />
<glyph unicode="&#xea;" horiz-adv-x="948" d="M94 500q0 241 122 399t308 158q139 0 242.5 -100.5t103.5 -235.5q0 -25 -13.5 -34t-49.5 -9h-6h-33h-506q-14 -92 -14 -156q0 -202 80.5 -311t228.5 -109q76 0 161.5 37.5t153.5 100.5l-24 -97q-79 -81 -156 -116t-170 -35q-191 0 -309.5 140.5t-118.5 367.5zM272 735 h308q64 0 89 17t25 57q0 75 -54.5 129.5t-129.5 54.5q-88 0 -150 -67t-88 -191zM291 1081l186 287h70l186 -283l-217 140z" />
<glyph unicode="&#xeb;" horiz-adv-x="948" d="M94 500q0 241 122 399t308 158q139 0 242.5 -100.5t103.5 -235.5q0 -25 -13.5 -34t-49.5 -9h-6h-33h-506q-14 -92 -14 -156q0 -202 80.5 -311t228.5 -109q76 0 161.5 37.5t153.5 100.5l-24 -97q-79 -81 -156 -116t-170 -35q-191 0 -309.5 140.5t-118.5 367.5zM233 1225 q0 41 31 71.5t72 30.5q42 0 71 -30t29 -72t-29 -72.5t-71 -30.5t-72.5 30.5t-30.5 72.5zM272 735h308q64 0 89 17t25 57q0 75 -54.5 129.5t-129.5 54.5q-88 0 -150 -67t-88 -191zM588 1225q0 42 30 72t72 30t71.5 -30t29.5 -72q0 -41 -30 -72t-71 -31q-43 0 -72.5 30.5 t-29.5 72.5z" />
<glyph unicode="&#xec;" horiz-adv-x="346" d="M-82 1372h182l107 -285zM100 0q6 56 9 133l2 64v18v8v592v25v6v59l-2 66q0 5 -7 63h142v-813l-2 -24v-4l2 -60q2 -84 10 -133h-154z" />
<glyph unicode="&#xed;" horiz-adv-x="346" d="M100 0q6 56 9 133l2 64v18v8v592v25v6v59l-2 66q0 5 -7 63h142v-813l-2 -24v-4l2 -60q2 -84 10 -133h-154zM158 1090l106 282h182z" />
<glyph unicode="&#xee;" horiz-adv-x="346" d="M-43 1081l186 287h70l186 -283l-217 140zM100 0q6 56 9 133l2 64v18v8v592v25v6v59l-2 66q0 5 -7 63h142v-813l-2 -24v-4l2 -60q2 -84 10 -133h-154z" />
<glyph unicode="&#xef;" horiz-adv-x="346" d="M-102 1225q0 41 30.5 71.5t71.5 30.5q42 0 71 -30t29 -72t-29 -72.5t-71 -30.5t-72 30t-30 73zM100 0q6 56 9 133l2 64v18v8v592v25v6v59l-2 66q0 5 -7 63h142v-813l-2 -24v-4l2 -60q2 -84 10 -133h-154zM252 1225q0 42 30 72t72 30t71.5 -30t29.5 -72q0 -41 -30 -72 t-71 -31q-43 0 -72.5 30.5t-29.5 72.5z" />
<glyph unicode="&#xf1;" horiz-adv-x="1038" d="M133 0q4 24 10 133l2 41v23q0 18 2 26v596q0 11 -2 25v63q0 64 -8 127h142v-131q150 160 325 160q66 0 125.5 -22t97.5 -60q43 -43 57.5 -94.5t14.5 -169.5q0 -17 -1 -51.5t-1 -53.5q-1 -19 -1 -99.5t-1 -123.5l-2 -166v-22q0 -17 2 -68l2 -57q0 -18 6 -76h-141v221v166 v229l2 152v4q0 87 -56 136.5t-153 49.5q-130 0 -217 -90q-41 -41 -50 -79.5t-9 -165.5v-19q0 -12 -1.5 -89t-1.5 -142v-150v-22v-4v-64q0 -15 1 -28t1.5 -20.5t0.5 -8.5v-6q0 -20 6 -70h-152zM305 1139q9 86 47.5 132t100.5 46q40 0 75 -17l74 -36q47 -23 82 -23t63.5 17.5 t65.5 60.5q-15 -93 -58 -142t-110 -49q-40 0 -76 19l-80 43q-32 16 -69 16q-33 0 -56 -13t-59 -54z" />
<glyph unicode="&#xf2;" horiz-adv-x="1091" d="M94 516q0 249 125 398t332 149q205 0 323.5 -140.5t118.5 -383.5q0 -162 -56.5 -290.5t-159 -200t-232.5 -71.5q-184 0 -309 133.5t-138 346.5q-4 18 -4 59zM244 567q0 -233 88.5 -380.5t228.5 -147.5q131 0 204 124t73 345q0 217 -86.5 354t-223.5 137 q-119 0 -193 -95.5t-89 -268.5q-2 -23 -2 -68zM307 1372h182l107 -285z" />
<glyph unicode="&#xf3;" horiz-adv-x="1091" d="M94 516q0 249 125 398t332 149q205 0 323.5 -140.5t118.5 -383.5q0 -162 -56.5 -290.5t-159 -200t-232.5 -71.5q-184 0 -309 133.5t-138 346.5q-4 18 -4 59zM244 567q0 -233 88.5 -380.5t228.5 -147.5q131 0 204 124t73 345q0 217 -86.5 354t-223.5 137 q-119 0 -193 -95.5t-89 -268.5q-2 -23 -2 -68zM512 1090l106 282h183z" />
<glyph unicode="&#xf4;" horiz-adv-x="1091" d="M94 516q0 249 125 398t332 149q205 0 323.5 -140.5t118.5 -383.5q0 -162 -56.5 -290.5t-159 -200t-232.5 -71.5q-184 0 -309 133.5t-138 346.5q-4 18 -4 59zM244 567q0 -233 88.5 -380.5t228.5 -147.5q131 0 204 124t73 345q0 217 -86.5 354t-223.5 137 q-119 0 -193 -95.5t-89 -268.5q-2 -23 -2 -68zM336 1081l186 287h70l186 -283l-217 140z" />
<glyph unicode="&#xf5;" horiz-adv-x="1091" d="M94 516q0 249 125 398t332 149q205 0 323.5 -140.5t118.5 -383.5q0 -162 -56.5 -290.5t-159 -200t-232.5 -71.5q-184 0 -309 133.5t-138 346.5q-4 18 -4 59zM244 567q0 -233 88.5 -380.5t228.5 -147.5q131 0 204 124t73 345q0 217 -86.5 354t-223.5 137 q-119 0 -193 -95.5t-89 -268.5q-2 -23 -2 -68zM322 1139q9 86 47 132t100 46q41 0 76 -17l73 -36q47 -23 82 -23t63.5 17.5t65.5 60.5q-15 -93 -57.5 -142t-109.5 -49q-40 0 -76 19l-80 43q-32 16 -70 16q-33 0 -55.5 -13t-58.5 -54z" />
<glyph unicode="&#xf6;" horiz-adv-x="1091" d="M102 516q0 249 125 398t332 149q205 0 323.5 -140.5t118.5 -383.5q0 -162 -56.5 -290.5t-159 -200t-232.5 -71.5q-184 0 -309 133.5t-138 346.5q-4 18 -4 59zM252 567q0 -233 88.5 -380.5t228.5 -147.5q131 0 204 124t73 345q0 217 -86.5 354t-222.5 137 q-119 0 -193.5 -95.5t-89.5 -268.5q-2 -23 -2 -68zM287 1214q0 41 30.5 72t71.5 31q42 0 71 -30.5t29 -72.5t-29 -72t-71 -30t-72 30t-30 72zM641 1214q0 42 30 72.5t72 30.5t71.5 -30.5t29.5 -72.5q0 -41 -30 -71.5t-71 -30.5q-44 0 -73 30t-29 72z" />
<glyph unicode="&#xf7;" horiz-adv-x="1216" d="M88 414v139h948v-139h-948zM446 207q0 49 33 82q38 35 84 35q49 0 82 -33t33 -84q0 -50 -35 -82q-30 -35 -80 -35q-49 0 -84 35q-33 38 -33 82zM446 758q0 49 33 82q34 31 84 34q50 0 80 -34q35 -35 35 -82q0 -50 -35 -82q-30 -35 -80 -35q-49 0 -84 35q-33 33 -33 82z " />
<glyph unicode="&#xf8;" horiz-adv-x="1107" d="M102 518q0 248 126 396.5t337 148.5q97 0 174 -35q40 -17 109 -78l92 133l35 -22l-98 -137q72 -93 90 -150q37 -106 37 -244q0 -239 -128.5 -396t-324.5 -157q-93 0 -166 33q-32 13 -56 30.5t-67 57.5l-100 -127l-33 21l107 137q-43 53 -61.5 81.5t-31.5 63.5 q-41 112 -41 244zM252 553q0 -130 59 -324l457 615q-25 43 -43 64t-45 40q-65 41 -143 41q-90 0 -147.5 -45.5t-94.5 -144.5q-43 -116 -43 -246zM332 195q26 -43 42.5 -63t43.5 -40q72 -53 153 -53q128 0 201.5 125t73.5 344q0 86 -12.5 151.5t-42.5 143.5z" />
<glyph unicode="&#xf9;" horiz-adv-x="1046" d="M135 1034h141v-661v-72q0 -47 5 -82q9 -65 65.5 -105t138.5 -40q123 0 204.5 65t78.5 164l-2 82v426v27v18q0 10 -1 25.5t-1 19.5v64q0 34 -2 69h137v-813v-26v-2q0 -31 2 -62q2 -52 8 -131h-141v147q-129 -170 -336 -170q-139 0 -213 70t-74 201v10l2 113v440v27 q-2 6 -2 63q-2 65 -10 133zM305 1372h182l107 -285z" />
<glyph unicode="&#xfa;" horiz-adv-x="1046" d="M135 1034h141v-661v-72q0 -47 5 -82q9 -65 65.5 -105t138.5 -40q123 0 204.5 65t78.5 164l-2 82v426v27v18q0 10 -1 25.5t-1 19.5v64q0 34 -2 69h137v-813v-26v-2q0 -31 2 -62q2 -52 8 -131h-141v147q-129 -170 -336 -170q-139 0 -213 70t-74 201v10l2 113v440v27 q-2 6 -2 63q-2 65 -10 133zM510 1090l106 282h183z" />
<glyph unicode="&#xfb;" horiz-adv-x="1046" d="M135 1034h141v-661v-72q0 -47 5 -82q9 -65 65.5 -105t138.5 -40q123 0 204.5 65t78.5 164l-2 82v426v27v18q0 10 -1 25.5t-1 19.5v64q0 34 -2 69h137v-813v-26v-2q0 -31 2 -62q2 -52 8 -131h-141v147q-129 -170 -336 -170q-139 0 -213 70t-74 201v10l2 113v440v27 q-2 6 -2 63q-2 65 -10 133zM322 1081l186 287h70l186 -283l-217 140z" />
<glyph unicode="&#xfc;" horiz-adv-x="1046" d="M119 1034h141v-661v-72q0 -54 4 -82q9 -64 66 -104.5t139 -40.5q123 0 204.5 65t78.5 164l-2 82v426v27v18q0 10 -1 25.5t-1 19.5v64q0 17 -3 69h138v-813v-26v-2q0 -31 2 -62q2 -52 8 -131h-141v147q-129 -170 -336 -170q-139 0 -213 70t-74 201v10l2 113v440v27 q-2 6 -2 63q-2 65 -10 133zM240 1214q0 41 30.5 72t71.5 31q42 0 71 -30.5t29 -72.5t-29 -72t-71 -30t-72 30t-30 72zM594 1214q0 42 30 72.5t72 30.5t71.5 -30.5t29.5 -72.5q0 -41 -30 -71.5t-71 -30.5q-44 0 -73 30t-29 72z" />
<glyph unicode="&#xff;" horiz-adv-x="892" d="M-139 -358q0 37 24.5 58t65.5 21q27 0 45 -10l41 -12q18 -6 51 -6q64 0 121 45q40 34 71.5 82.5t73.5 144.5q35 74 35 123q0 46 -18 96l-281 713q-22 56 -37.5 80.5t-48.5 56.5h211q3 -69 18 -106l252 -672l254 623q21 49 21 88q0 26 -17 67h162q-22 -23 -32 -40.5 t-33 -71.5l-447 -1031q-70 -164 -170 -248.5t-223 -84.5q-64 0 -101.5 23t-37.5 61zM199 1225q0 41 30.5 71.5t71.5 30.5q42 0 71 -30t29 -72t-29 -72.5t-71 -30.5q-41 0 -71.5 30t-30.5 73zM553 1225q0 42 30 72t72 30t71.5 -30t29.5 -72q0 -41 -30 -72t-71 -31 q-43 0 -72.5 30.5t-29.5 72.5z" />
<glyph unicode="&#x152;" horiz-adv-x="1896" d="M98 713q0 230 85 407.5t239.5 275t353.5 97.5q44 0 119 -6l121 -10h727l22 -121q-165 45 -299 45h-311v-588h236q100 0 254 45v-164q-127 43 -269 43h-221v-655h354q96 0 172.5 10t200.5 41l-84 -133h-751q-30 0 -129 -8q-6 -1 -34 -3.5t-48 -4.5q-20 0 -46 -1t-32 -1 q-296 0 -478 202t-182 529zM279 748q0 -311 133.5 -498t357.5 -187q123 0 178.5 59t55.5 189v916q0 104 -54 150t-174 46q-230 0 -363.5 -181t-133.5 -494z" />
<glyph unicode="&#x153;" horiz-adv-x="1710" d="M104 516q0 246 125 395.5t332 149.5q122 0 219 -58t156 -163q123 215 344 215q139 0 238.5 -99t99.5 -237q0 -33 -23 -39q-12 -4 -82 -4h-505q-9 -99 -9 -156q0 -203 79.5 -314.5t224.5 -111.5q77 0 165.5 41t151.5 105l-25 -99q-76 -83 -152 -120t-169 -37 q-112 0 -205 60.5t-149 166.5q-15 -37 -41 -74q-53 -74 -141 -117t-189 -43q-201 0 -323 148.5t-122 390.5zM248 551q0 -39 2 -59q13 -211 98 -332t219 -121q129 0 204 118.5t75 321.5q0 240 -82 380t-223 140q-140 0 -216.5 -117t-76.5 -331zM1016 727h299l7 1q6 0 18 0.5 t26 0.5q6 1 18.5 2t16.5 2q10 0 12 2q39 14 39 64q0 78 -58.5 135t-138.5 57q-87 0 -151.5 -70.5t-87.5 -193.5z" />
<glyph unicode="&#x178;" horiz-adv-x="1062" d="M-29 1477h203l420 -748l268 569q33 70 33 152v27h166q-7 -12 -16 -25t-13 -20q-6 -13 -33 -62q-10 -17 -22 -37.5t-19.5 -33.5t-11.5 -23l-260 -537l-20 -47q-20 -50 -21 -53q-8 -24 -8 -119v-334q0 -28 6 -59q0 -3 4 -61q4 -42 10 -66h-202q26 118 26 172v455l-395 690 q-7 13 -55 80l-37 47q-18 24 -23 33zM293 1739q0 41 30.5 71.5t71.5 30.5q42 0 71.5 -30t29.5 -72t-29.5 -72.5t-71.5 -30.5q-41 0 -71.5 30t-30.5 73zM647 1739q0 41 30.5 71.5t72.5 30.5t71 -30t29 -72t-29.5 -72.5t-70.5 -30.5q-44 0 -73.5 30.5t-29.5 72.5z" />
<glyph unicode="&#x2c6;" horiz-adv-x="579" d="M70 1081l186 287h70l186 -283l-217 140z" />
<glyph unicode="&#x2dc;" horiz-adv-x="645" d="M70 1139q9 86 47 132t100 46q41 0 76 -17l74 -36q47 -23 82 -23t63.5 17.5t65.5 60.5q-15 -93 -58 -142t-110 -49q-40 0 -76 19l-80 43q-32 16 -70 16q-33 0 -55.5 -13t-58.5 -54z" />
<glyph unicode="&#x2000;" horiz-adv-x="943" />
<glyph unicode="&#x2001;" horiz-adv-x="1886" />
<glyph unicode="&#x2002;" horiz-adv-x="943" />
<glyph unicode="&#x2003;" horiz-adv-x="1886" />
<glyph unicode="&#x2004;" horiz-adv-x="628" />
<glyph unicode="&#x2005;" horiz-adv-x="471" />
<glyph unicode="&#x2006;" horiz-adv-x="314" />
<glyph unicode="&#x2007;" horiz-adv-x="314" />
<glyph unicode="&#x2008;" horiz-adv-x="235" />
<glyph unicode="&#x2009;" horiz-adv-x="377" />
<glyph unicode="&#x200a;" horiz-adv-x="104" />
<glyph unicode="&#x2010;" horiz-adv-x="811" d="M76 504l78 131h581l-78 -131h-581z" />
<glyph unicode="&#x2011;" horiz-adv-x="811" d="M76 504l78 131h581l-78 -131h-581z" />
<glyph unicode="&#x2012;" horiz-adv-x="811" d="M76 504l78 131h581l-78 -131h-581z" />
<glyph unicode="&#x2013;" d="M53 672v131h1037v-131h-1037z" />
<glyph unicode="&#x2014;" horiz-adv-x="2039" d="M61 705v65h1917v-65h-1917z" />
<glyph unicode="&#x2018;" horiz-adv-x="360" d="M37 1165q15 59 34.5 98.5t55.5 84.5q42 56 84 88q44 34 113 69q-13 -19 -30 -46.5t-20 -31.5q-40 -62 -52.5 -88t-12.5 -47q0 -81 90 -127l-129 -129z" />
<glyph unicode="&#x2019;" horiz-adv-x="360" d="M37 1036q13 19 29 46t20 32q43 67 55.5 91t12.5 44q0 81 -93 127l129 129l134 -129q-15 -57 -34.5 -97t-53.5 -85q-34 -42 -84 -86q-61 -45 -115 -72z" />
<glyph unicode="&#x201a;" horiz-adv-x="360" d="M37 -240q41 67 49 78q42 65 55 90.5t13 44.5q0 86 -93 129l129 127l134 -127q-15 -58 -34.5 -98.5t-53.5 -83.5q-41 -51 -84 -86q-48 -37 -115 -74z" />
<glyph unicode="&#x201c;" horiz-adv-x="686" d="M37 1165q15 59 34.5 98.5t55.5 84.5q42 56 84 88q44 34 113 69q-13 -19 -30 -46.5t-20 -31.5q-40 -62 -52.5 -88t-12.5 -47q0 -81 90 -127l-129 -129zM362 1165q24 97 87 183q37 48 88 88q38 31 110 69q-30 -49 -49 -78q-43 -67 -55.5 -91t-12.5 -44q0 -80 93 -127 l-127 -129z" />
<glyph unicode="&#x201d;" horiz-adv-x="686" d="M37 1036q13 19 29 46t20 32q43 67 55.5 91t12.5 44q0 81 -93 127l129 129l134 -129q-15 -57 -34.5 -97t-53.5 -85q-34 -42 -84 -86q-61 -45 -115 -72zM362 1036q13 19 30 46t20 32q42 65 54.5 90t12.5 45q0 80 -92 127l129 129l131 -129q-15 -59 -33.5 -98.5t-52.5 -83.5 q-37 -46 -86 -86q-41 -34 -113 -72z" />
<glyph unicode="&#x201e;" horiz-adv-x="686" d="M37 -240q41 67 49 78q42 65 55 90.5t13 44.5q0 86 -93 129l129 127l134 -127q-15 -58 -34.5 -98.5t-53.5 -83.5q-41 -51 -84 -86q-48 -37 -115 -74zM362 -240q28 44 50 78q40 63 53.5 89.5t13.5 45.5q0 85 -92 129l129 127l131 -127q-15 -60 -34 -100t-52 -82 q-37 -46 -86 -86q-39 -32 -113 -74z" />
<glyph unicode="&#x2022;" horiz-adv-x="391" d="M70 516l125 129l129 -129l-129 -133z" />
<glyph unicode="&#x2026;" horiz-adv-x="2039" d="M268 70q0 35 25.5 60.5t60.5 25.5q37 0 62 -25q25 -26 25 -61t-25 -60q-26 -26 -62 -26q-35 0 -60.5 25.5t-25.5 60.5zM950 70q0 35 25.5 60.5t60.5 25.5q37 0 62 -25q25 -26 25 -61t-25 -60q-26 -26 -62 -26q-35 0 -60.5 25.5t-25.5 60.5zM1620 70q0 35 25.5 60.5 t60.5 25.5t60.5 -25.5t25.5 -60.5t-25.5 -60.5t-60.5 -25.5t-60.5 25.5t-25.5 60.5z" />
<glyph unicode="&#x202f;" horiz-adv-x="377" />
<glyph unicode="&#x2039;" horiz-adv-x="589" d="M98 516l394 541l-244 -541l244 -539z" />
<glyph unicode="&#x203a;" horiz-adv-x="589" d="M98 -23l242 539l-242 541l394 -541z" />
<glyph unicode="&#x205f;" horiz-adv-x="471" />
<glyph unicode="&#x20ac;" horiz-adv-x="1435" d="M102 614l35 82h105v25q0 39 2 57h-142l35 82h115q40 279 219.5 456t429.5 177q32 0 221 -23l64 -8q13 -2 27.5 -4t22.5 -3t11 -1q15 0 27 2l16 -172q-83 63 -188 99t-205 36q-196 0 -319 -148.5t-146 -410.5h635l-35 -82h-606v-41v-41h571l-34 -82h-531 q26 -259 155.5 -407t332.5 -148q114 0 212 55t203 175l-47 -162q-183 -154 -401 -154q-255 0 -431.5 179t-207.5 462h-146z" />
<glyph unicode="&#x2122;" horiz-adv-x="1640" d="M113 1389v86h438v-86h-172v-652h-96v652h-170zM526 737l152 764h20l238 -518l14 -29l2 -8q1 -4 5 -17.5t6 -25.5t2 -24q3 42 14 69l4 10l10 25l240 518h20l152 -764h-100l-80 449l-4 31l-2 4q-3 34 2 61q-2 -9 -9 -29.5t-10 -31.5l-6 -21l-4 -8l-219 -477h-15l-219 477 l-4 12l-8 19q-11 37 -16 59q4 -40 2 -61l-2 -4l-4 -31l-80 -449h-101z" />
<glyph unicode="&#x25fc;" horiz-adv-x="1034" d="M0 0v1034h1034v-1034h-1034z" />
</font>
</defs>
</svg>
